G04 #@! TF.FileFunction,Copper,L1,Top,Signal*
%FSLAX46Y46*%
G04 Gerber Fmt 4.6, Leading zero omitted, Abs format (unit mm)*
G04 Created by KiCad (PCBNEW 4.0.7) date 07/07/18 12:03:53*
%MOMM*%
%LPD*%
G01*
G04 APERTURE LIST*
%ADD10C,0.100000*%
%ADD11R,1.700000X0.900000*%
%ADD12R,1.700000X1.700000*%
%ADD13O,1.700000X1.700000*%
%ADD14C,0.600000*%
%ADD15C,0.250000*%
%ADD16C,0.254000*%
G04 APERTURE END LIST*
D10*
D11*
X118745000Y-98220000D03*
X118745000Y-94820000D03*
X123190000Y-98220000D03*
X123190000Y-94820000D03*
X127635000Y-98220000D03*
X127635000Y-94820000D03*
X132080000Y-98220000D03*
X132080000Y-94820000D03*
X136525000Y-98220000D03*
X136525000Y-94820000D03*
X118745000Y-100535000D03*
X118745000Y-103935000D03*
X123190000Y-100535000D03*
X123190000Y-103935000D03*
X127635000Y-100535000D03*
X127635000Y-103935000D03*
X132080000Y-100535000D03*
X132080000Y-103935000D03*
X136525000Y-100535000D03*
X136525000Y-103935000D03*
X118745000Y-106250000D03*
X118745000Y-109650000D03*
X123190000Y-106250000D03*
X123190000Y-109650000D03*
X127635000Y-106250000D03*
X127635000Y-109650000D03*
X132080000Y-106250000D03*
X132080000Y-109650000D03*
X136525000Y-106250000D03*
X136525000Y-109650000D03*
X118745000Y-111965000D03*
X118745000Y-115365000D03*
X123190000Y-111965000D03*
X123190000Y-115365000D03*
X127635000Y-111965000D03*
X127635000Y-115365000D03*
X132080000Y-111965000D03*
X132080000Y-115365000D03*
X136525000Y-111965000D03*
X136525000Y-115365000D03*
D12*
X123825000Y-90805000D03*
D13*
X126365000Y-90805000D03*
X128905000Y-90805000D03*
X131445000Y-90805000D03*
D14*
X118745000Y-95186500D03*
X126746000Y-107950000D03*
X125285500Y-109664500D03*
X131635500Y-113601500D03*
X123253500Y-113665000D03*
X121031000Y-105473500D03*
X121031000Y-98615500D03*
X123444000Y-96456500D03*
X118427500Y-98234500D03*
X125222000Y-106108500D03*
X127508000Y-101981000D03*
X127889000Y-96583500D03*
X124206000Y-110871000D03*
X131508500Y-102108000D03*
X131953000Y-111569500D03*
X132080000Y-107950000D03*
X136461500Y-96710500D03*
X135953500Y-107886500D03*
X136207500Y-111950500D03*
X134112000Y-93218000D03*
D15*
X118745000Y-95186500D02*
X118745000Y-94820000D01*
X132080000Y-94820000D02*
X136525000Y-94820000D01*
X127635000Y-94820000D02*
X132080000Y-94820000D01*
X127635000Y-94820000D02*
X123190000Y-94820000D01*
X118745000Y-94820000D02*
X123190000Y-94820000D01*
X132080000Y-103935000D02*
X136525000Y-103935000D01*
X127635000Y-103935000D02*
X132080000Y-103935000D01*
X123190000Y-103935000D02*
X127635000Y-103935000D01*
X118745000Y-103935000D02*
X123190000Y-103935000D01*
X127635000Y-109650000D02*
X127635000Y-109156500D01*
X126746000Y-108267500D02*
X126746000Y-107950000D01*
X127635000Y-109156500D02*
X126746000Y-108267500D01*
X125285500Y-109664500D02*
X125285500Y-109650000D01*
X125285500Y-109650000D02*
X125285500Y-109664500D01*
X125285500Y-109664500D02*
X125285500Y-109650000D01*
X132080000Y-109650000D02*
X136525000Y-109650000D01*
X127635000Y-109650000D02*
X132080000Y-109650000D01*
X123190000Y-109650000D02*
X125285500Y-109650000D01*
X125285500Y-109650000D02*
X127635000Y-109650000D01*
X118745000Y-109650000D02*
X123190000Y-109650000D01*
X132080000Y-115365000D02*
X132080000Y-114046000D01*
X132080000Y-114046000D02*
X131635500Y-113601500D01*
X136525000Y-115365000D02*
X138000000Y-115365000D01*
X130238500Y-92456000D02*
X128905000Y-91122500D01*
X137858500Y-92456000D02*
X130238500Y-92456000D01*
X138303000Y-92900500D02*
X137858500Y-92456000D01*
X138303000Y-115062000D02*
X138303000Y-92900500D01*
X138000000Y-115365000D02*
X138303000Y-115062000D01*
X128905000Y-91122500D02*
X128905000Y-90805000D01*
X132080000Y-115365000D02*
X136525000Y-115365000D01*
X127635000Y-115365000D02*
X132080000Y-115365000D01*
X123190000Y-115365000D02*
X127635000Y-115365000D01*
X118745000Y-115365000D02*
X123190000Y-115365000D01*
X123190000Y-111965000D02*
X123190000Y-113601500D01*
X123190000Y-113601500D02*
X123253500Y-113665000D01*
X123190000Y-106250000D02*
X121807500Y-106250000D01*
X121807500Y-106250000D02*
X121031000Y-105473500D01*
X123190000Y-100535000D02*
X123190000Y-98220000D01*
X123190000Y-98220000D02*
X121426500Y-98220000D01*
X121426500Y-98220000D02*
X121031000Y-98615500D01*
X123190000Y-98220000D02*
X123190000Y-96710500D01*
X123190000Y-96710500D02*
X123444000Y-96456500D01*
X118745000Y-111965000D02*
X117934000Y-111965000D01*
X117934000Y-111965000D02*
X117094000Y-111125000D01*
X117094000Y-111125000D02*
X117094000Y-105664000D01*
X117094000Y-105664000D02*
X117252750Y-105505250D01*
X118745000Y-106250000D02*
X117997500Y-106250000D01*
X117997500Y-106250000D02*
X117252750Y-105505250D01*
X117252750Y-105505250D02*
X117094000Y-105346500D01*
X117094000Y-105346500D02*
X117094000Y-100774500D01*
X117094000Y-100774500D02*
X117333500Y-100535000D01*
X117333500Y-100535000D02*
X118745000Y-100535000D01*
X118745000Y-98220000D02*
X118745000Y-100535000D01*
X118427500Y-98234500D02*
X118442000Y-98220000D01*
X118442000Y-98220000D02*
X118745000Y-98220000D01*
X127635000Y-106250000D02*
X125363500Y-106250000D01*
X125363500Y-106250000D02*
X125222000Y-106108500D01*
X127635000Y-100535000D02*
X127635000Y-101854000D01*
X127635000Y-101854000D02*
X127508000Y-101981000D01*
X127635000Y-98220000D02*
X127635000Y-96837500D01*
X127635000Y-96837500D02*
X127889000Y-96583500D01*
X127635000Y-111965000D02*
X127078000Y-111965000D01*
X127078000Y-111965000D02*
X125984000Y-110871000D01*
X125984000Y-110871000D02*
X124206000Y-110871000D01*
X132080000Y-100535000D02*
X132080000Y-101536500D01*
X132080000Y-101536500D02*
X131508500Y-102108000D01*
X132080000Y-98220000D02*
X132080000Y-100535000D01*
X131953000Y-111569500D02*
X132080000Y-111696500D01*
X132080000Y-111696500D02*
X132080000Y-111965000D01*
X132080000Y-106250000D02*
X132080000Y-107950000D01*
X136525000Y-98220000D02*
X136525000Y-96774000D01*
X136525000Y-96774000D02*
X136461500Y-96710500D01*
X136525000Y-100535000D02*
X136525000Y-98220000D01*
X136525000Y-106250000D02*
X136525000Y-107315000D01*
X136525000Y-107315000D02*
X135953500Y-107886500D01*
X136207500Y-111950500D02*
X136222000Y-111965000D01*
X136222000Y-111965000D02*
X136525000Y-111965000D01*
X123825000Y-92392500D02*
X123825000Y-90805000D01*
X124396500Y-92964000D02*
X123825000Y-92392500D01*
X124396500Y-93027500D02*
X124396500Y-92964000D01*
X125095000Y-93726000D02*
X124396500Y-93027500D01*
X129730500Y-93726000D02*
X125095000Y-93726000D01*
X130429000Y-93027500D02*
X129730500Y-93726000D01*
X133921500Y-93027500D02*
X130429000Y-93027500D01*
X134112000Y-93218000D02*
X133921500Y-93027500D01*
D16*
G36*
X138355000Y-117400000D02*
X116915000Y-117400000D01*
X116915000Y-115650750D01*
X117260000Y-115650750D01*
X117260000Y-115941309D01*
X117356673Y-116174698D01*
X117535301Y-116353327D01*
X117768690Y-116450000D01*
X118459250Y-116450000D01*
X118618000Y-116291250D01*
X118618000Y-115492000D01*
X118872000Y-115492000D01*
X118872000Y-116291250D01*
X119030750Y-116450000D01*
X119721310Y-116450000D01*
X119954699Y-116353327D01*
X120133327Y-116174698D01*
X120230000Y-115941309D01*
X120230000Y-115650750D01*
X121705000Y-115650750D01*
X121705000Y-115941309D01*
X121801673Y-116174698D01*
X121980301Y-116353327D01*
X122213690Y-116450000D01*
X122904250Y-116450000D01*
X123063000Y-116291250D01*
X123063000Y-115492000D01*
X123317000Y-115492000D01*
X123317000Y-116291250D01*
X123475750Y-116450000D01*
X124166310Y-116450000D01*
X124399699Y-116353327D01*
X124578327Y-116174698D01*
X124675000Y-115941309D01*
X124675000Y-115650750D01*
X126150000Y-115650750D01*
X126150000Y-115941309D01*
X126246673Y-116174698D01*
X126425301Y-116353327D01*
X126658690Y-116450000D01*
X127349250Y-116450000D01*
X127508000Y-116291250D01*
X127508000Y-115492000D01*
X127762000Y-115492000D01*
X127762000Y-116291250D01*
X127920750Y-116450000D01*
X128611310Y-116450000D01*
X128844699Y-116353327D01*
X129023327Y-116174698D01*
X129120000Y-115941309D01*
X129120000Y-115650750D01*
X130595000Y-115650750D01*
X130595000Y-115941309D01*
X130691673Y-116174698D01*
X130870301Y-116353327D01*
X131103690Y-116450000D01*
X131794250Y-116450000D01*
X131953000Y-116291250D01*
X131953000Y-115492000D01*
X132207000Y-115492000D01*
X132207000Y-116291250D01*
X132365750Y-116450000D01*
X133056310Y-116450000D01*
X133289699Y-116353327D01*
X133468327Y-116174698D01*
X133565000Y-115941309D01*
X133565000Y-115650750D01*
X135040000Y-115650750D01*
X135040000Y-115941309D01*
X135136673Y-116174698D01*
X135315301Y-116353327D01*
X135548690Y-116450000D01*
X136239250Y-116450000D01*
X136398000Y-116291250D01*
X136398000Y-115492000D01*
X136652000Y-115492000D01*
X136652000Y-116291250D01*
X136810750Y-116450000D01*
X137501310Y-116450000D01*
X137734699Y-116353327D01*
X137913327Y-116174698D01*
X138010000Y-115941309D01*
X138010000Y-115650750D01*
X137851250Y-115492000D01*
X136652000Y-115492000D01*
X136398000Y-115492000D01*
X135198750Y-115492000D01*
X135040000Y-115650750D01*
X133565000Y-115650750D01*
X133406250Y-115492000D01*
X132207000Y-115492000D01*
X131953000Y-115492000D01*
X130753750Y-115492000D01*
X130595000Y-115650750D01*
X129120000Y-115650750D01*
X128961250Y-115492000D01*
X127762000Y-115492000D01*
X127508000Y-115492000D01*
X126308750Y-115492000D01*
X126150000Y-115650750D01*
X124675000Y-115650750D01*
X124516250Y-115492000D01*
X123317000Y-115492000D01*
X123063000Y-115492000D01*
X121863750Y-115492000D01*
X121705000Y-115650750D01*
X120230000Y-115650750D01*
X120071250Y-115492000D01*
X118872000Y-115492000D01*
X118618000Y-115492000D01*
X117418750Y-115492000D01*
X117260000Y-115650750D01*
X116915000Y-115650750D01*
X116915000Y-114788691D01*
X117260000Y-114788691D01*
X117260000Y-115079250D01*
X117418750Y-115238000D01*
X118618000Y-115238000D01*
X118618000Y-114438750D01*
X118872000Y-114438750D01*
X118872000Y-115238000D01*
X120071250Y-115238000D01*
X120230000Y-115079250D01*
X120230000Y-114788691D01*
X120133327Y-114555302D01*
X119954699Y-114376673D01*
X119721310Y-114280000D01*
X119030750Y-114280000D01*
X118872000Y-114438750D01*
X118618000Y-114438750D01*
X118459250Y-114280000D01*
X117768690Y-114280000D01*
X117535301Y-114376673D01*
X117356673Y-114555302D01*
X117260000Y-114788691D01*
X116915000Y-114788691D01*
X116915000Y-112020802D01*
X117247560Y-112353362D01*
X117247560Y-112415000D01*
X117291838Y-112650317D01*
X117430910Y-112866441D01*
X117643110Y-113011431D01*
X117895000Y-113062440D01*
X119595000Y-113062440D01*
X119830317Y-113018162D01*
X120046441Y-112879090D01*
X120191431Y-112666890D01*
X120242440Y-112415000D01*
X120242440Y-111515000D01*
X120198162Y-111279683D01*
X120059090Y-111063559D01*
X119846890Y-110918569D01*
X119595000Y-110867560D01*
X117911362Y-110867560D01*
X117854000Y-110810198D01*
X117854000Y-110739137D01*
X117895000Y-110747440D01*
X119595000Y-110747440D01*
X119830317Y-110703162D01*
X120046441Y-110564090D01*
X120151726Y-110410000D01*
X121784895Y-110410000D01*
X121875910Y-110551441D01*
X122088110Y-110696431D01*
X122340000Y-110747440D01*
X123271107Y-110747440D01*
X123271002Y-110867560D01*
X122340000Y-110867560D01*
X122104683Y-110911838D01*
X121888559Y-111050910D01*
X121743569Y-111263110D01*
X121692560Y-111515000D01*
X121692560Y-112415000D01*
X121736838Y-112650317D01*
X121875910Y-112866441D01*
X122088110Y-113011431D01*
X122340000Y-113062440D01*
X122430000Y-113062440D01*
X122430000Y-113210071D01*
X122318662Y-113478201D01*
X122318338Y-113850167D01*
X122460383Y-114193943D01*
X122546290Y-114280000D01*
X122213690Y-114280000D01*
X121980301Y-114376673D01*
X121801673Y-114555302D01*
X121705000Y-114788691D01*
X121705000Y-115079250D01*
X121863750Y-115238000D01*
X123063000Y-115238000D01*
X123063000Y-115218000D01*
X123317000Y-115218000D01*
X123317000Y-115238000D01*
X124516250Y-115238000D01*
X124675000Y-115079250D01*
X124675000Y-114788691D01*
X126150000Y-114788691D01*
X126150000Y-115079250D01*
X126308750Y-115238000D01*
X127508000Y-115238000D01*
X127508000Y-114438750D01*
X127762000Y-114438750D01*
X127762000Y-115238000D01*
X128961250Y-115238000D01*
X129120000Y-115079250D01*
X129120000Y-114788691D01*
X130595000Y-114788691D01*
X130595000Y-115079250D01*
X130753750Y-115238000D01*
X131953000Y-115238000D01*
X131953000Y-114438750D01*
X132207000Y-114438750D01*
X132207000Y-115238000D01*
X133406250Y-115238000D01*
X133565000Y-115079250D01*
X133565000Y-114788691D01*
X135040000Y-114788691D01*
X135040000Y-115079250D01*
X135198750Y-115238000D01*
X136398000Y-115238000D01*
X136398000Y-114438750D01*
X136652000Y-114438750D01*
X136652000Y-115238000D01*
X137851250Y-115238000D01*
X138010000Y-115079250D01*
X138010000Y-114788691D01*
X137913327Y-114555302D01*
X137734699Y-114376673D01*
X137501310Y-114280000D01*
X136810750Y-114280000D01*
X136652000Y-114438750D01*
X136398000Y-114438750D01*
X136239250Y-114280000D01*
X135548690Y-114280000D01*
X135315301Y-114376673D01*
X135136673Y-114555302D01*
X135040000Y-114788691D01*
X133565000Y-114788691D01*
X133468327Y-114555302D01*
X133289699Y-114376673D01*
X133056310Y-114280000D01*
X132365750Y-114280000D01*
X132207000Y-114438750D01*
X131953000Y-114438750D01*
X131794250Y-114280000D01*
X131103690Y-114280000D01*
X130870301Y-114376673D01*
X130691673Y-114555302D01*
X130595000Y-114788691D01*
X129120000Y-114788691D01*
X129023327Y-114555302D01*
X128844699Y-114376673D01*
X128611310Y-114280000D01*
X127920750Y-114280000D01*
X127762000Y-114438750D01*
X127508000Y-114438750D01*
X127349250Y-114280000D01*
X126658690Y-114280000D01*
X126425301Y-114376673D01*
X126246673Y-114555302D01*
X126150000Y-114788691D01*
X124675000Y-114788691D01*
X124578327Y-114555302D01*
X124399699Y-114376673D01*
X124166310Y-114280000D01*
X123960871Y-114280000D01*
X124045692Y-114195327D01*
X124188338Y-113851799D01*
X124188662Y-113479833D01*
X124046617Y-113136057D01*
X123973128Y-113062440D01*
X124040000Y-113062440D01*
X124275317Y-113018162D01*
X124491441Y-112879090D01*
X124636431Y-112666890D01*
X124687440Y-112415000D01*
X124687440Y-111683745D01*
X124734943Y-111664117D01*
X124768118Y-111631000D01*
X125669198Y-111631000D01*
X126137560Y-112099362D01*
X126137560Y-112415000D01*
X126181838Y-112650317D01*
X126320910Y-112866441D01*
X126533110Y-113011431D01*
X126785000Y-113062440D01*
X128485000Y-113062440D01*
X128720317Y-113018162D01*
X128936441Y-112879090D01*
X129081431Y-112666890D01*
X129132440Y-112415000D01*
X129132440Y-111515000D01*
X129088162Y-111279683D01*
X128949090Y-111063559D01*
X128736890Y-110918569D01*
X128485000Y-110867560D01*
X127055362Y-110867560D01*
X126935242Y-110747440D01*
X128485000Y-110747440D01*
X128720317Y-110703162D01*
X128936441Y-110564090D01*
X129041726Y-110410000D01*
X130674895Y-110410000D01*
X130765910Y-110551441D01*
X130978110Y-110696431D01*
X131230000Y-110747440D01*
X131494105Y-110747440D01*
X131424057Y-110776383D01*
X131332721Y-110867560D01*
X131230000Y-110867560D01*
X130994683Y-110911838D01*
X130778559Y-111050910D01*
X130633569Y-111263110D01*
X130582560Y-111515000D01*
X130582560Y-112415000D01*
X130626838Y-112650317D01*
X130765910Y-112866441D01*
X130978110Y-113011431D01*
X131230000Y-113062440D01*
X132930000Y-113062440D01*
X133165317Y-113018162D01*
X133381441Y-112879090D01*
X133526431Y-112666890D01*
X133577440Y-112415000D01*
X133577440Y-111515000D01*
X135027560Y-111515000D01*
X135027560Y-112415000D01*
X135071838Y-112650317D01*
X135210910Y-112866441D01*
X135423110Y-113011431D01*
X135675000Y-113062440D01*
X137375000Y-113062440D01*
X137610317Y-113018162D01*
X137826441Y-112879090D01*
X137971431Y-112666890D01*
X138022440Y-112415000D01*
X138022440Y-111515000D01*
X137978162Y-111279683D01*
X137839090Y-111063559D01*
X137626890Y-110918569D01*
X137375000Y-110867560D01*
X135675000Y-110867560D01*
X135439683Y-110911838D01*
X135223559Y-111050910D01*
X135078569Y-111263110D01*
X135027560Y-111515000D01*
X133577440Y-111515000D01*
X133533162Y-111279683D01*
X133394090Y-111063559D01*
X133181890Y-110918569D01*
X132930000Y-110867560D01*
X132573422Y-110867560D01*
X132483327Y-110777308D01*
X132411397Y-110747440D01*
X132930000Y-110747440D01*
X133165317Y-110703162D01*
X133381441Y-110564090D01*
X133486726Y-110410000D01*
X135119895Y-110410000D01*
X135210910Y-110551441D01*
X135423110Y-110696431D01*
X135675000Y-110747440D01*
X137375000Y-110747440D01*
X137610317Y-110703162D01*
X137826441Y-110564090D01*
X137971431Y-110351890D01*
X138022440Y-110100000D01*
X138022440Y-109200000D01*
X137978162Y-108964683D01*
X137839090Y-108748559D01*
X137626890Y-108603569D01*
X137375000Y-108552560D01*
X136609722Y-108552560D01*
X136745692Y-108416827D01*
X136888338Y-108073299D01*
X136888379Y-108026423D01*
X137062401Y-107852401D01*
X137227148Y-107605839D01*
X137278547Y-107347440D01*
X137375000Y-107347440D01*
X137610317Y-107303162D01*
X137826441Y-107164090D01*
X137971431Y-106951890D01*
X138022440Y-106700000D01*
X138022440Y-105800000D01*
X137978162Y-105564683D01*
X137839090Y-105348559D01*
X137626890Y-105203569D01*
X137375000Y-105152560D01*
X135675000Y-105152560D01*
X135439683Y-105196838D01*
X135223559Y-105335910D01*
X135078569Y-105548110D01*
X135027560Y-105800000D01*
X135027560Y-106700000D01*
X135071838Y-106935317D01*
X135210910Y-107151441D01*
X135303217Y-107214512D01*
X135161308Y-107356173D01*
X135018662Y-107699701D01*
X135018338Y-108071667D01*
X135160383Y-108415443D01*
X135379878Y-108635321D01*
X135223559Y-108735910D01*
X135118274Y-108890000D01*
X133485105Y-108890000D01*
X133394090Y-108748559D01*
X133181890Y-108603569D01*
X132930000Y-108552560D01*
X132799833Y-108552560D01*
X132872192Y-108480327D01*
X133014838Y-108136799D01*
X133015162Y-107764833D01*
X132873117Y-107421057D01*
X132840000Y-107387882D01*
X132840000Y-107347440D01*
X132930000Y-107347440D01*
X133165317Y-107303162D01*
X133381441Y-107164090D01*
X133526431Y-106951890D01*
X133577440Y-106700000D01*
X133577440Y-105800000D01*
X133533162Y-105564683D01*
X133394090Y-105348559D01*
X133181890Y-105203569D01*
X132930000Y-105152560D01*
X131230000Y-105152560D01*
X130994683Y-105196838D01*
X130778559Y-105335910D01*
X130633569Y-105548110D01*
X130582560Y-105800000D01*
X130582560Y-106700000D01*
X130626838Y-106935317D01*
X130765910Y-107151441D01*
X130978110Y-107296431D01*
X131230000Y-107347440D01*
X131320000Y-107347440D01*
X131320000Y-107387537D01*
X131287808Y-107419673D01*
X131145162Y-107763201D01*
X131144838Y-108135167D01*
X131286883Y-108478943D01*
X131360372Y-108552560D01*
X131230000Y-108552560D01*
X130994683Y-108596838D01*
X130778559Y-108735910D01*
X130673274Y-108890000D01*
X129040105Y-108890000D01*
X128949090Y-108748559D01*
X128736890Y-108603569D01*
X128485000Y-108552560D01*
X128105862Y-108552560D01*
X127680846Y-108127544D01*
X127681162Y-107764833D01*
X127539117Y-107421057D01*
X127465628Y-107347440D01*
X128485000Y-107347440D01*
X128720317Y-107303162D01*
X128936441Y-107164090D01*
X129081431Y-106951890D01*
X129132440Y-106700000D01*
X129132440Y-105800000D01*
X129088162Y-105564683D01*
X128949090Y-105348559D01*
X128736890Y-105203569D01*
X128485000Y-105152560D01*
X126785000Y-105152560D01*
X126549683Y-105196838D01*
X126333559Y-105335910D01*
X126228274Y-105490000D01*
X125925716Y-105490000D01*
X125752327Y-105316308D01*
X125408799Y-105173662D01*
X125036833Y-105173338D01*
X124693057Y-105315383D01*
X124565000Y-105443216D01*
X124504090Y-105348559D01*
X124291890Y-105203569D01*
X124040000Y-105152560D01*
X122340000Y-105152560D01*
X122104683Y-105196838D01*
X121965392Y-105286469D01*
X121824117Y-104944557D01*
X121574995Y-104695000D01*
X121784895Y-104695000D01*
X121875910Y-104836441D01*
X122088110Y-104981431D01*
X122340000Y-105032440D01*
X124040000Y-105032440D01*
X124275317Y-104988162D01*
X124491441Y-104849090D01*
X124596726Y-104695000D01*
X126229895Y-104695000D01*
X126320910Y-104836441D01*
X126533110Y-104981431D01*
X126785000Y-105032440D01*
X128485000Y-105032440D01*
X128720317Y-104988162D01*
X128936441Y-104849090D01*
X129041726Y-104695000D01*
X130674895Y-104695000D01*
X130765910Y-104836441D01*
X130978110Y-104981431D01*
X131230000Y-105032440D01*
X132930000Y-105032440D01*
X133165317Y-104988162D01*
X133381441Y-104849090D01*
X133486726Y-104695000D01*
X135119895Y-104695000D01*
X135210910Y-104836441D01*
X135423110Y-104981431D01*
X135675000Y-105032440D01*
X137375000Y-105032440D01*
X137610317Y-104988162D01*
X137826441Y-104849090D01*
X137971431Y-104636890D01*
X138022440Y-104385000D01*
X138022440Y-103485000D01*
X137978162Y-103249683D01*
X137839090Y-103033559D01*
X137626890Y-102888569D01*
X137375000Y-102837560D01*
X135675000Y-102837560D01*
X135439683Y-102881838D01*
X135223559Y-103020910D01*
X135118274Y-103175000D01*
X133485105Y-103175000D01*
X133394090Y-103033559D01*
X133181890Y-102888569D01*
X132930000Y-102837560D01*
X132101111Y-102837560D01*
X132300692Y-102638327D01*
X132443338Y-102294799D01*
X132443379Y-102247923D01*
X132617401Y-102073901D01*
X132782148Y-101827339D01*
X132820916Y-101632440D01*
X132930000Y-101632440D01*
X133165317Y-101588162D01*
X133381441Y-101449090D01*
X133526431Y-101236890D01*
X133577440Y-100985000D01*
X133577440Y-100085000D01*
X133533162Y-99849683D01*
X133394090Y-99633559D01*
X133181890Y-99488569D01*
X132930000Y-99437560D01*
X132840000Y-99437560D01*
X132840000Y-99317440D01*
X132930000Y-99317440D01*
X133165317Y-99273162D01*
X133381441Y-99134090D01*
X133526431Y-98921890D01*
X133577440Y-98670000D01*
X133577440Y-97770000D01*
X133533162Y-97534683D01*
X133394090Y-97318559D01*
X133181890Y-97173569D01*
X132930000Y-97122560D01*
X131230000Y-97122560D01*
X130994683Y-97166838D01*
X130778559Y-97305910D01*
X130633569Y-97518110D01*
X130582560Y-97770000D01*
X130582560Y-98670000D01*
X130626838Y-98905317D01*
X130765910Y-99121441D01*
X130978110Y-99266431D01*
X131230000Y-99317440D01*
X131320000Y-99317440D01*
X131320000Y-99437560D01*
X131230000Y-99437560D01*
X130994683Y-99481838D01*
X130778559Y-99620910D01*
X130633569Y-99833110D01*
X130582560Y-100085000D01*
X130582560Y-100985000D01*
X130626838Y-101220317D01*
X130765910Y-101436441D01*
X130820454Y-101473709D01*
X130716308Y-101577673D01*
X130573662Y-101921201D01*
X130573338Y-102293167D01*
X130715383Y-102636943D01*
X130973475Y-102895485D01*
X130778559Y-103020910D01*
X130673274Y-103175000D01*
X129040105Y-103175000D01*
X128949090Y-103033559D01*
X128736890Y-102888569D01*
X128485000Y-102837560D01*
X127883399Y-102837560D01*
X128036943Y-102774117D01*
X128300192Y-102511327D01*
X128442838Y-102167799D01*
X128443162Y-101795833D01*
X128395000Y-101679272D01*
X128395000Y-101632440D01*
X128485000Y-101632440D01*
X128720317Y-101588162D01*
X128936441Y-101449090D01*
X129081431Y-101236890D01*
X129132440Y-100985000D01*
X129132440Y-100085000D01*
X129088162Y-99849683D01*
X128949090Y-99633559D01*
X128736890Y-99488569D01*
X128485000Y-99437560D01*
X126785000Y-99437560D01*
X126549683Y-99481838D01*
X126333559Y-99620910D01*
X126188569Y-99833110D01*
X126137560Y-100085000D01*
X126137560Y-100985000D01*
X126181838Y-101220317D01*
X126320910Y-101436441D01*
X126533110Y-101581431D01*
X126651553Y-101605416D01*
X126573162Y-101794201D01*
X126572838Y-102166167D01*
X126714883Y-102509943D01*
X126977673Y-102773192D01*
X127132688Y-102837560D01*
X126785000Y-102837560D01*
X126549683Y-102881838D01*
X126333559Y-103020910D01*
X126228274Y-103175000D01*
X124595105Y-103175000D01*
X124504090Y-103033559D01*
X124291890Y-102888569D01*
X124040000Y-102837560D01*
X122340000Y-102837560D01*
X122104683Y-102881838D01*
X121888559Y-103020910D01*
X121783274Y-103175000D01*
X120150105Y-103175000D01*
X120059090Y-103033559D01*
X119846890Y-102888569D01*
X119595000Y-102837560D01*
X117895000Y-102837560D01*
X117854000Y-102845275D01*
X117854000Y-101624137D01*
X117895000Y-101632440D01*
X119595000Y-101632440D01*
X119830317Y-101588162D01*
X120046441Y-101449090D01*
X120191431Y-101236890D01*
X120242440Y-100985000D01*
X120242440Y-100085000D01*
X120198162Y-99849683D01*
X120059090Y-99633559D01*
X119846890Y-99488569D01*
X119595000Y-99437560D01*
X119505000Y-99437560D01*
X119505000Y-99317440D01*
X119595000Y-99317440D01*
X119830317Y-99273162D01*
X120046441Y-99134090D01*
X120163074Y-98963392D01*
X120237883Y-99144443D01*
X120500673Y-99407692D01*
X120844201Y-99550338D01*
X121216167Y-99550662D01*
X121559943Y-99408617D01*
X121823192Y-99145827D01*
X121850023Y-99081211D01*
X121875910Y-99121441D01*
X122088110Y-99266431D01*
X122340000Y-99317440D01*
X122430000Y-99317440D01*
X122430000Y-99437560D01*
X122340000Y-99437560D01*
X122104683Y-99481838D01*
X121888559Y-99620910D01*
X121743569Y-99833110D01*
X121692560Y-100085000D01*
X121692560Y-100985000D01*
X121736838Y-101220317D01*
X121875910Y-101436441D01*
X122088110Y-101581431D01*
X122340000Y-101632440D01*
X124040000Y-101632440D01*
X124275317Y-101588162D01*
X124491441Y-101449090D01*
X124636431Y-101236890D01*
X124687440Y-100985000D01*
X124687440Y-100085000D01*
X124643162Y-99849683D01*
X124504090Y-99633559D01*
X124291890Y-99488569D01*
X124040000Y-99437560D01*
X123950000Y-99437560D01*
X123950000Y-99317440D01*
X124040000Y-99317440D01*
X124275317Y-99273162D01*
X124491441Y-99134090D01*
X124636431Y-98921890D01*
X124687440Y-98670000D01*
X124687440Y-97770000D01*
X124643162Y-97534683D01*
X124504090Y-97318559D01*
X124291890Y-97173569D01*
X124090066Y-97132699D01*
X124236192Y-96986827D01*
X124378838Y-96643299D01*
X124379162Y-96271333D01*
X124237117Y-95927557D01*
X124197444Y-95887815D01*
X124275317Y-95873162D01*
X124491441Y-95734090D01*
X124596726Y-95580000D01*
X126229895Y-95580000D01*
X126320910Y-95721441D01*
X126533110Y-95866431D01*
X126785000Y-95917440D01*
X127232778Y-95917440D01*
X127096808Y-96053173D01*
X126954162Y-96396701D01*
X126954059Y-96514922D01*
X126932852Y-96546661D01*
X126875000Y-96837500D01*
X126875000Y-97122560D01*
X126785000Y-97122560D01*
X126549683Y-97166838D01*
X126333559Y-97305910D01*
X126188569Y-97518110D01*
X126137560Y-97770000D01*
X126137560Y-98670000D01*
X126181838Y-98905317D01*
X126320910Y-99121441D01*
X126533110Y-99266431D01*
X126785000Y-99317440D01*
X128485000Y-99317440D01*
X128720317Y-99273162D01*
X128936441Y-99134090D01*
X129081431Y-98921890D01*
X129132440Y-98670000D01*
X129132440Y-97770000D01*
X129088162Y-97534683D01*
X128949090Y-97318559D01*
X128736890Y-97173569D01*
X128640832Y-97154117D01*
X128681192Y-97113827D01*
X128823838Y-96770299D01*
X128824162Y-96398333D01*
X128682117Y-96054557D01*
X128535713Y-95907898D01*
X128720317Y-95873162D01*
X128936441Y-95734090D01*
X129041726Y-95580000D01*
X130674895Y-95580000D01*
X130765910Y-95721441D01*
X130978110Y-95866431D01*
X131230000Y-95917440D01*
X132930000Y-95917440D01*
X133165317Y-95873162D01*
X133381441Y-95734090D01*
X133486726Y-95580000D01*
X135119895Y-95580000D01*
X135210910Y-95721441D01*
X135423110Y-95866431D01*
X135675000Y-95917440D01*
X135932500Y-95917440D01*
X135669308Y-96180173D01*
X135526662Y-96523701D01*
X135526338Y-96895667D01*
X135624049Y-97132147D01*
X135439683Y-97166838D01*
X135223559Y-97305910D01*
X135078569Y-97518110D01*
X135027560Y-97770000D01*
X135027560Y-98670000D01*
X135071838Y-98905317D01*
X135210910Y-99121441D01*
X135423110Y-99266431D01*
X135675000Y-99317440D01*
X135765000Y-99317440D01*
X135765000Y-99437560D01*
X135675000Y-99437560D01*
X135439683Y-99481838D01*
X135223559Y-99620910D01*
X135078569Y-99833110D01*
X135027560Y-100085000D01*
X135027560Y-100985000D01*
X135071838Y-101220317D01*
X135210910Y-101436441D01*
X135423110Y-101581431D01*
X135675000Y-101632440D01*
X137375000Y-101632440D01*
X137610317Y-101588162D01*
X137826441Y-101449090D01*
X137971431Y-101236890D01*
X138022440Y-100985000D01*
X138022440Y-100085000D01*
X137978162Y-99849683D01*
X137839090Y-99633559D01*
X137626890Y-99488569D01*
X137375000Y-99437560D01*
X137285000Y-99437560D01*
X137285000Y-99317440D01*
X137375000Y-99317440D01*
X137610317Y-99273162D01*
X137826441Y-99134090D01*
X137971431Y-98921890D01*
X138022440Y-98670000D01*
X138022440Y-97770000D01*
X137978162Y-97534683D01*
X137839090Y-97318559D01*
X137626890Y-97173569D01*
X137375000Y-97122560D01*
X137302801Y-97122560D01*
X137396338Y-96897299D01*
X137396662Y-96525333D01*
X137254617Y-96181557D01*
X136991827Y-95918308D01*
X136989737Y-95917440D01*
X137375000Y-95917440D01*
X137610317Y-95873162D01*
X137826441Y-95734090D01*
X137971431Y-95521890D01*
X138022440Y-95270000D01*
X138022440Y-94370000D01*
X137978162Y-94134683D01*
X137839090Y-93918559D01*
X137626890Y-93773569D01*
X137375000Y-93722560D01*
X135675000Y-93722560D01*
X135439683Y-93766838D01*
X135223559Y-93905910D01*
X135118274Y-94060000D01*
X134522637Y-94060000D01*
X134640943Y-94011117D01*
X134904192Y-93748327D01*
X135046838Y-93404799D01*
X135047162Y-93032833D01*
X134905117Y-92689057D01*
X134642327Y-92425808D01*
X134298799Y-92283162D01*
X133998924Y-92282901D01*
X133921500Y-92267500D01*
X131704375Y-92267500D01*
X132013285Y-92206054D01*
X132495054Y-91884147D01*
X132816961Y-91402378D01*
X132930000Y-90834093D01*
X132930000Y-90775907D01*
X132816961Y-90207622D01*
X132495054Y-89725853D01*
X132321667Y-89610000D01*
X138355000Y-89610000D01*
X138355000Y-117400000D01*
X138355000Y-117400000D01*
G37*
X138355000Y-117400000D02*
X116915000Y-117400000D01*
X116915000Y-115650750D01*
X117260000Y-115650750D01*
X117260000Y-115941309D01*
X117356673Y-116174698D01*
X117535301Y-116353327D01*
X117768690Y-116450000D01*
X118459250Y-116450000D01*
X118618000Y-116291250D01*
X118618000Y-115492000D01*
X118872000Y-115492000D01*
X118872000Y-116291250D01*
X119030750Y-116450000D01*
X119721310Y-116450000D01*
X119954699Y-116353327D01*
X120133327Y-116174698D01*
X120230000Y-115941309D01*
X120230000Y-115650750D01*
X121705000Y-115650750D01*
X121705000Y-115941309D01*
X121801673Y-116174698D01*
X121980301Y-116353327D01*
X122213690Y-116450000D01*
X122904250Y-116450000D01*
X123063000Y-116291250D01*
X123063000Y-115492000D01*
X123317000Y-115492000D01*
X123317000Y-116291250D01*
X123475750Y-116450000D01*
X124166310Y-116450000D01*
X124399699Y-116353327D01*
X124578327Y-116174698D01*
X124675000Y-115941309D01*
X124675000Y-115650750D01*
X126150000Y-115650750D01*
X126150000Y-115941309D01*
X126246673Y-116174698D01*
X126425301Y-116353327D01*
X126658690Y-116450000D01*
X127349250Y-116450000D01*
X127508000Y-116291250D01*
X127508000Y-115492000D01*
X127762000Y-115492000D01*
X127762000Y-116291250D01*
X127920750Y-116450000D01*
X128611310Y-116450000D01*
X128844699Y-116353327D01*
X129023327Y-116174698D01*
X129120000Y-115941309D01*
X129120000Y-115650750D01*
X130595000Y-115650750D01*
X130595000Y-115941309D01*
X130691673Y-116174698D01*
X130870301Y-116353327D01*
X131103690Y-116450000D01*
X131794250Y-116450000D01*
X131953000Y-116291250D01*
X131953000Y-115492000D01*
X132207000Y-115492000D01*
X132207000Y-116291250D01*
X132365750Y-116450000D01*
X133056310Y-116450000D01*
X133289699Y-116353327D01*
X133468327Y-116174698D01*
X133565000Y-115941309D01*
X133565000Y-115650750D01*
X135040000Y-115650750D01*
X135040000Y-115941309D01*
X135136673Y-116174698D01*
X135315301Y-116353327D01*
X135548690Y-116450000D01*
X136239250Y-116450000D01*
X136398000Y-116291250D01*
X136398000Y-115492000D01*
X136652000Y-115492000D01*
X136652000Y-116291250D01*
X136810750Y-116450000D01*
X137501310Y-116450000D01*
X137734699Y-116353327D01*
X137913327Y-116174698D01*
X138010000Y-115941309D01*
X138010000Y-115650750D01*
X137851250Y-115492000D01*
X136652000Y-115492000D01*
X136398000Y-115492000D01*
X135198750Y-115492000D01*
X135040000Y-115650750D01*
X133565000Y-115650750D01*
X133406250Y-115492000D01*
X132207000Y-115492000D01*
X131953000Y-115492000D01*
X130753750Y-115492000D01*
X130595000Y-115650750D01*
X129120000Y-115650750D01*
X128961250Y-115492000D01*
X127762000Y-115492000D01*
X127508000Y-115492000D01*
X126308750Y-115492000D01*
X126150000Y-115650750D01*
X124675000Y-115650750D01*
X124516250Y-115492000D01*
X123317000Y-115492000D01*
X123063000Y-115492000D01*
X121863750Y-115492000D01*
X121705000Y-115650750D01*
X120230000Y-115650750D01*
X120071250Y-115492000D01*
X118872000Y-115492000D01*
X118618000Y-115492000D01*
X117418750Y-115492000D01*
X117260000Y-115650750D01*
X116915000Y-115650750D01*
X116915000Y-114788691D01*
X117260000Y-114788691D01*
X117260000Y-115079250D01*
X117418750Y-115238000D01*
X118618000Y-115238000D01*
X118618000Y-114438750D01*
X118872000Y-114438750D01*
X118872000Y-115238000D01*
X120071250Y-115238000D01*
X120230000Y-115079250D01*
X120230000Y-114788691D01*
X120133327Y-114555302D01*
X119954699Y-114376673D01*
X119721310Y-114280000D01*
X119030750Y-114280000D01*
X118872000Y-114438750D01*
X118618000Y-114438750D01*
X118459250Y-114280000D01*
X117768690Y-114280000D01*
X117535301Y-114376673D01*
X117356673Y-114555302D01*
X117260000Y-114788691D01*
X116915000Y-114788691D01*
X116915000Y-112020802D01*
X117247560Y-112353362D01*
X117247560Y-112415000D01*
X117291838Y-112650317D01*
X117430910Y-112866441D01*
X117643110Y-113011431D01*
X117895000Y-113062440D01*
X119595000Y-113062440D01*
X119830317Y-113018162D01*
X120046441Y-112879090D01*
X120191431Y-112666890D01*
X120242440Y-112415000D01*
X120242440Y-111515000D01*
X120198162Y-111279683D01*
X120059090Y-111063559D01*
X119846890Y-110918569D01*
X119595000Y-110867560D01*
X117911362Y-110867560D01*
X117854000Y-110810198D01*
X117854000Y-110739137D01*
X117895000Y-110747440D01*
X119595000Y-110747440D01*
X119830317Y-110703162D01*
X120046441Y-110564090D01*
X120151726Y-110410000D01*
X121784895Y-110410000D01*
X121875910Y-110551441D01*
X122088110Y-110696431D01*
X122340000Y-110747440D01*
X123271107Y-110747440D01*
X123271002Y-110867560D01*
X122340000Y-110867560D01*
X122104683Y-110911838D01*
X121888559Y-111050910D01*
X121743569Y-111263110D01*
X121692560Y-111515000D01*
X121692560Y-112415000D01*
X121736838Y-112650317D01*
X121875910Y-112866441D01*
X122088110Y-113011431D01*
X122340000Y-113062440D01*
X122430000Y-113062440D01*
X122430000Y-113210071D01*
X122318662Y-113478201D01*
X122318338Y-113850167D01*
X122460383Y-114193943D01*
X122546290Y-114280000D01*
X122213690Y-114280000D01*
X121980301Y-114376673D01*
X121801673Y-114555302D01*
X121705000Y-114788691D01*
X121705000Y-115079250D01*
X121863750Y-115238000D01*
X123063000Y-115238000D01*
X123063000Y-115218000D01*
X123317000Y-115218000D01*
X123317000Y-115238000D01*
X124516250Y-115238000D01*
X124675000Y-115079250D01*
X124675000Y-114788691D01*
X126150000Y-114788691D01*
X126150000Y-115079250D01*
X126308750Y-115238000D01*
X127508000Y-115238000D01*
X127508000Y-114438750D01*
X127762000Y-114438750D01*
X127762000Y-115238000D01*
X128961250Y-115238000D01*
X129120000Y-115079250D01*
X129120000Y-114788691D01*
X130595000Y-114788691D01*
X130595000Y-115079250D01*
X130753750Y-115238000D01*
X131953000Y-115238000D01*
X131953000Y-114438750D01*
X132207000Y-114438750D01*
X132207000Y-115238000D01*
X133406250Y-115238000D01*
X133565000Y-115079250D01*
X133565000Y-114788691D01*
X135040000Y-114788691D01*
X135040000Y-115079250D01*
X135198750Y-115238000D01*
X136398000Y-115238000D01*
X136398000Y-114438750D01*
X136652000Y-114438750D01*
X136652000Y-115238000D01*
X137851250Y-115238000D01*
X138010000Y-115079250D01*
X138010000Y-114788691D01*
X137913327Y-114555302D01*
X137734699Y-114376673D01*
X137501310Y-114280000D01*
X136810750Y-114280000D01*
X136652000Y-114438750D01*
X136398000Y-114438750D01*
X136239250Y-114280000D01*
X135548690Y-114280000D01*
X135315301Y-114376673D01*
X135136673Y-114555302D01*
X135040000Y-114788691D01*
X133565000Y-114788691D01*
X133468327Y-114555302D01*
X133289699Y-114376673D01*
X133056310Y-114280000D01*
X132365750Y-114280000D01*
X132207000Y-114438750D01*
X131953000Y-114438750D01*
X131794250Y-114280000D01*
X131103690Y-114280000D01*
X130870301Y-114376673D01*
X130691673Y-114555302D01*
X130595000Y-114788691D01*
X129120000Y-114788691D01*
X129023327Y-114555302D01*
X128844699Y-114376673D01*
X128611310Y-114280000D01*
X127920750Y-114280000D01*
X127762000Y-114438750D01*
X127508000Y-114438750D01*
X127349250Y-114280000D01*
X126658690Y-114280000D01*
X126425301Y-114376673D01*
X126246673Y-114555302D01*
X126150000Y-114788691D01*
X124675000Y-114788691D01*
X124578327Y-114555302D01*
X124399699Y-114376673D01*
X124166310Y-114280000D01*
X123960871Y-114280000D01*
X124045692Y-114195327D01*
X124188338Y-113851799D01*
X124188662Y-113479833D01*
X124046617Y-113136057D01*
X123973128Y-113062440D01*
X124040000Y-113062440D01*
X124275317Y-113018162D01*
X124491441Y-112879090D01*
X124636431Y-112666890D01*
X124687440Y-112415000D01*
X124687440Y-111683745D01*
X124734943Y-111664117D01*
X124768118Y-111631000D01*
X125669198Y-111631000D01*
X126137560Y-112099362D01*
X126137560Y-112415000D01*
X126181838Y-112650317D01*
X126320910Y-112866441D01*
X126533110Y-113011431D01*
X126785000Y-113062440D01*
X128485000Y-113062440D01*
X128720317Y-113018162D01*
X128936441Y-112879090D01*
X129081431Y-112666890D01*
X129132440Y-112415000D01*
X129132440Y-111515000D01*
X129088162Y-111279683D01*
X128949090Y-111063559D01*
X128736890Y-110918569D01*
X128485000Y-110867560D01*
X127055362Y-110867560D01*
X126935242Y-110747440D01*
X128485000Y-110747440D01*
X128720317Y-110703162D01*
X128936441Y-110564090D01*
X129041726Y-110410000D01*
X130674895Y-110410000D01*
X130765910Y-110551441D01*
X130978110Y-110696431D01*
X131230000Y-110747440D01*
X131494105Y-110747440D01*
X131424057Y-110776383D01*
X131332721Y-110867560D01*
X131230000Y-110867560D01*
X130994683Y-110911838D01*
X130778559Y-111050910D01*
X130633569Y-111263110D01*
X130582560Y-111515000D01*
X130582560Y-112415000D01*
X130626838Y-112650317D01*
X130765910Y-112866441D01*
X130978110Y-113011431D01*
X131230000Y-113062440D01*
X132930000Y-113062440D01*
X133165317Y-113018162D01*
X133381441Y-112879090D01*
X133526431Y-112666890D01*
X133577440Y-112415000D01*
X133577440Y-111515000D01*
X135027560Y-111515000D01*
X135027560Y-112415000D01*
X135071838Y-112650317D01*
X135210910Y-112866441D01*
X135423110Y-113011431D01*
X135675000Y-113062440D01*
X137375000Y-113062440D01*
X137610317Y-113018162D01*
X137826441Y-112879090D01*
X137971431Y-112666890D01*
X138022440Y-112415000D01*
X138022440Y-111515000D01*
X137978162Y-111279683D01*
X137839090Y-111063559D01*
X137626890Y-110918569D01*
X137375000Y-110867560D01*
X135675000Y-110867560D01*
X135439683Y-110911838D01*
X135223559Y-111050910D01*
X135078569Y-111263110D01*
X135027560Y-111515000D01*
X133577440Y-111515000D01*
X133533162Y-111279683D01*
X133394090Y-111063559D01*
X133181890Y-110918569D01*
X132930000Y-110867560D01*
X132573422Y-110867560D01*
X132483327Y-110777308D01*
X132411397Y-110747440D01*
X132930000Y-110747440D01*
X133165317Y-110703162D01*
X133381441Y-110564090D01*
X133486726Y-110410000D01*
X135119895Y-110410000D01*
X135210910Y-110551441D01*
X135423110Y-110696431D01*
X135675000Y-110747440D01*
X137375000Y-110747440D01*
X137610317Y-110703162D01*
X137826441Y-110564090D01*
X137971431Y-110351890D01*
X138022440Y-110100000D01*
X138022440Y-109200000D01*
X137978162Y-108964683D01*
X137839090Y-108748559D01*
X137626890Y-108603569D01*
X137375000Y-108552560D01*
X136609722Y-108552560D01*
X136745692Y-108416827D01*
X136888338Y-108073299D01*
X136888379Y-108026423D01*
X137062401Y-107852401D01*
X137227148Y-107605839D01*
X137278547Y-107347440D01*
X137375000Y-107347440D01*
X137610317Y-107303162D01*
X137826441Y-107164090D01*
X137971431Y-106951890D01*
X138022440Y-106700000D01*
X138022440Y-105800000D01*
X137978162Y-105564683D01*
X137839090Y-105348559D01*
X137626890Y-105203569D01*
X137375000Y-105152560D01*
X135675000Y-105152560D01*
X135439683Y-105196838D01*
X135223559Y-105335910D01*
X135078569Y-105548110D01*
X135027560Y-105800000D01*
X135027560Y-106700000D01*
X135071838Y-106935317D01*
X135210910Y-107151441D01*
X135303217Y-107214512D01*
X135161308Y-107356173D01*
X135018662Y-107699701D01*
X135018338Y-108071667D01*
X135160383Y-108415443D01*
X135379878Y-108635321D01*
X135223559Y-108735910D01*
X135118274Y-108890000D01*
X133485105Y-108890000D01*
X133394090Y-108748559D01*
X133181890Y-108603569D01*
X132930000Y-108552560D01*
X132799833Y-108552560D01*
X132872192Y-108480327D01*
X133014838Y-108136799D01*
X133015162Y-107764833D01*
X132873117Y-107421057D01*
X132840000Y-107387882D01*
X132840000Y-107347440D01*
X132930000Y-107347440D01*
X133165317Y-107303162D01*
X133381441Y-107164090D01*
X133526431Y-106951890D01*
X133577440Y-106700000D01*
X133577440Y-105800000D01*
X133533162Y-105564683D01*
X133394090Y-105348559D01*
X133181890Y-105203569D01*
X132930000Y-105152560D01*
X131230000Y-105152560D01*
X130994683Y-105196838D01*
X130778559Y-105335910D01*
X130633569Y-105548110D01*
X130582560Y-105800000D01*
X130582560Y-106700000D01*
X130626838Y-106935317D01*
X130765910Y-107151441D01*
X130978110Y-107296431D01*
X131230000Y-107347440D01*
X131320000Y-107347440D01*
X131320000Y-107387537D01*
X131287808Y-107419673D01*
X131145162Y-107763201D01*
X131144838Y-108135167D01*
X131286883Y-108478943D01*
X131360372Y-108552560D01*
X131230000Y-108552560D01*
X130994683Y-108596838D01*
X130778559Y-108735910D01*
X130673274Y-108890000D01*
X129040105Y-108890000D01*
X128949090Y-108748559D01*
X128736890Y-108603569D01*
X128485000Y-108552560D01*
X128105862Y-108552560D01*
X127680846Y-108127544D01*
X127681162Y-107764833D01*
X127539117Y-107421057D01*
X127465628Y-107347440D01*
X128485000Y-107347440D01*
X128720317Y-107303162D01*
X128936441Y-107164090D01*
X129081431Y-106951890D01*
X129132440Y-106700000D01*
X129132440Y-105800000D01*
X129088162Y-105564683D01*
X128949090Y-105348559D01*
X128736890Y-105203569D01*
X128485000Y-105152560D01*
X126785000Y-105152560D01*
X126549683Y-105196838D01*
X126333559Y-105335910D01*
X126228274Y-105490000D01*
X125925716Y-105490000D01*
X125752327Y-105316308D01*
X125408799Y-105173662D01*
X125036833Y-105173338D01*
X124693057Y-105315383D01*
X124565000Y-105443216D01*
X124504090Y-105348559D01*
X124291890Y-105203569D01*
X124040000Y-105152560D01*
X122340000Y-105152560D01*
X122104683Y-105196838D01*
X121965392Y-105286469D01*
X121824117Y-104944557D01*
X121574995Y-104695000D01*
X121784895Y-104695000D01*
X121875910Y-104836441D01*
X122088110Y-104981431D01*
X122340000Y-105032440D01*
X124040000Y-105032440D01*
X124275317Y-104988162D01*
X124491441Y-104849090D01*
X124596726Y-104695000D01*
X126229895Y-104695000D01*
X126320910Y-104836441D01*
X126533110Y-104981431D01*
X126785000Y-105032440D01*
X128485000Y-105032440D01*
X128720317Y-104988162D01*
X128936441Y-104849090D01*
X129041726Y-104695000D01*
X130674895Y-104695000D01*
X130765910Y-104836441D01*
X130978110Y-104981431D01*
X131230000Y-105032440D01*
X132930000Y-105032440D01*
X133165317Y-104988162D01*
X133381441Y-104849090D01*
X133486726Y-104695000D01*
X135119895Y-104695000D01*
X135210910Y-104836441D01*
X135423110Y-104981431D01*
X135675000Y-105032440D01*
X137375000Y-105032440D01*
X137610317Y-104988162D01*
X137826441Y-104849090D01*
X137971431Y-104636890D01*
X138022440Y-104385000D01*
X138022440Y-103485000D01*
X137978162Y-103249683D01*
X137839090Y-103033559D01*
X137626890Y-102888569D01*
X137375000Y-102837560D01*
X135675000Y-102837560D01*
X135439683Y-102881838D01*
X135223559Y-103020910D01*
X135118274Y-103175000D01*
X133485105Y-103175000D01*
X133394090Y-103033559D01*
X133181890Y-102888569D01*
X132930000Y-102837560D01*
X132101111Y-102837560D01*
X132300692Y-102638327D01*
X132443338Y-102294799D01*
X132443379Y-102247923D01*
X132617401Y-102073901D01*
X132782148Y-101827339D01*
X132820916Y-101632440D01*
X132930000Y-101632440D01*
X133165317Y-101588162D01*
X133381441Y-101449090D01*
X133526431Y-101236890D01*
X133577440Y-100985000D01*
X133577440Y-100085000D01*
X133533162Y-99849683D01*
X133394090Y-99633559D01*
X133181890Y-99488569D01*
X132930000Y-99437560D01*
X132840000Y-99437560D01*
X132840000Y-99317440D01*
X132930000Y-99317440D01*
X133165317Y-99273162D01*
X133381441Y-99134090D01*
X133526431Y-98921890D01*
X133577440Y-98670000D01*
X133577440Y-97770000D01*
X133533162Y-97534683D01*
X133394090Y-97318559D01*
X133181890Y-97173569D01*
X132930000Y-97122560D01*
X131230000Y-97122560D01*
X130994683Y-97166838D01*
X130778559Y-97305910D01*
X130633569Y-97518110D01*
X130582560Y-97770000D01*
X130582560Y-98670000D01*
X130626838Y-98905317D01*
X130765910Y-99121441D01*
X130978110Y-99266431D01*
X131230000Y-99317440D01*
X131320000Y-99317440D01*
X131320000Y-99437560D01*
X131230000Y-99437560D01*
X130994683Y-99481838D01*
X130778559Y-99620910D01*
X130633569Y-99833110D01*
X130582560Y-100085000D01*
X130582560Y-100985000D01*
X130626838Y-101220317D01*
X130765910Y-101436441D01*
X130820454Y-101473709D01*
X130716308Y-101577673D01*
X130573662Y-101921201D01*
X130573338Y-102293167D01*
X130715383Y-102636943D01*
X130973475Y-102895485D01*
X130778559Y-103020910D01*
X130673274Y-103175000D01*
X129040105Y-103175000D01*
X128949090Y-103033559D01*
X128736890Y-102888569D01*
X128485000Y-102837560D01*
X127883399Y-102837560D01*
X128036943Y-102774117D01*
X128300192Y-102511327D01*
X128442838Y-102167799D01*
X128443162Y-101795833D01*
X128395000Y-101679272D01*
X128395000Y-101632440D01*
X128485000Y-101632440D01*
X128720317Y-101588162D01*
X128936441Y-101449090D01*
X129081431Y-101236890D01*
X129132440Y-100985000D01*
X129132440Y-100085000D01*
X129088162Y-99849683D01*
X128949090Y-99633559D01*
X128736890Y-99488569D01*
X128485000Y-99437560D01*
X126785000Y-99437560D01*
X126549683Y-99481838D01*
X126333559Y-99620910D01*
X126188569Y-99833110D01*
X126137560Y-100085000D01*
X126137560Y-100985000D01*
X126181838Y-101220317D01*
X126320910Y-101436441D01*
X126533110Y-101581431D01*
X126651553Y-101605416D01*
X126573162Y-101794201D01*
X126572838Y-102166167D01*
X126714883Y-102509943D01*
X126977673Y-102773192D01*
X127132688Y-102837560D01*
X126785000Y-102837560D01*
X126549683Y-102881838D01*
X126333559Y-103020910D01*
X126228274Y-103175000D01*
X124595105Y-103175000D01*
X124504090Y-103033559D01*
X124291890Y-102888569D01*
X124040000Y-102837560D01*
X122340000Y-102837560D01*
X122104683Y-102881838D01*
X121888559Y-103020910D01*
X121783274Y-103175000D01*
X120150105Y-103175000D01*
X120059090Y-103033559D01*
X119846890Y-102888569D01*
X119595000Y-102837560D01*
X117895000Y-102837560D01*
X117854000Y-102845275D01*
X117854000Y-101624137D01*
X117895000Y-101632440D01*
X119595000Y-101632440D01*
X119830317Y-101588162D01*
X120046441Y-101449090D01*
X120191431Y-101236890D01*
X120242440Y-100985000D01*
X120242440Y-100085000D01*
X120198162Y-99849683D01*
X120059090Y-99633559D01*
X119846890Y-99488569D01*
X119595000Y-99437560D01*
X119505000Y-99437560D01*
X119505000Y-99317440D01*
X119595000Y-99317440D01*
X119830317Y-99273162D01*
X120046441Y-99134090D01*
X120163074Y-98963392D01*
X120237883Y-99144443D01*
X120500673Y-99407692D01*
X120844201Y-99550338D01*
X121216167Y-99550662D01*
X121559943Y-99408617D01*
X121823192Y-99145827D01*
X121850023Y-99081211D01*
X121875910Y-99121441D01*
X122088110Y-99266431D01*
X122340000Y-99317440D01*
X122430000Y-99317440D01*
X122430000Y-99437560D01*
X122340000Y-99437560D01*
X122104683Y-99481838D01*
X121888559Y-99620910D01*
X121743569Y-99833110D01*
X121692560Y-100085000D01*
X121692560Y-100985000D01*
X121736838Y-101220317D01*
X121875910Y-101436441D01*
X122088110Y-101581431D01*
X122340000Y-101632440D01*
X124040000Y-101632440D01*
X124275317Y-101588162D01*
X124491441Y-101449090D01*
X124636431Y-101236890D01*
X124687440Y-100985000D01*
X124687440Y-100085000D01*
X124643162Y-99849683D01*
X124504090Y-99633559D01*
X124291890Y-99488569D01*
X124040000Y-99437560D01*
X123950000Y-99437560D01*
X123950000Y-99317440D01*
X124040000Y-99317440D01*
X124275317Y-99273162D01*
X124491441Y-99134090D01*
X124636431Y-98921890D01*
X124687440Y-98670000D01*
X124687440Y-97770000D01*
X124643162Y-97534683D01*
X124504090Y-97318559D01*
X124291890Y-97173569D01*
X124090066Y-97132699D01*
X124236192Y-96986827D01*
X124378838Y-96643299D01*
X124379162Y-96271333D01*
X124237117Y-95927557D01*
X124197444Y-95887815D01*
X124275317Y-95873162D01*
X124491441Y-95734090D01*
X124596726Y-95580000D01*
X126229895Y-95580000D01*
X126320910Y-95721441D01*
X126533110Y-95866431D01*
X126785000Y-95917440D01*
X127232778Y-95917440D01*
X127096808Y-96053173D01*
X126954162Y-96396701D01*
X126954059Y-96514922D01*
X126932852Y-96546661D01*
X126875000Y-96837500D01*
X126875000Y-97122560D01*
X126785000Y-97122560D01*
X126549683Y-97166838D01*
X126333559Y-97305910D01*
X126188569Y-97518110D01*
X126137560Y-97770000D01*
X126137560Y-98670000D01*
X126181838Y-98905317D01*
X126320910Y-99121441D01*
X126533110Y-99266431D01*
X126785000Y-99317440D01*
X128485000Y-99317440D01*
X128720317Y-99273162D01*
X128936441Y-99134090D01*
X129081431Y-98921890D01*
X129132440Y-98670000D01*
X129132440Y-97770000D01*
X129088162Y-97534683D01*
X128949090Y-97318559D01*
X128736890Y-97173569D01*
X128640832Y-97154117D01*
X128681192Y-97113827D01*
X128823838Y-96770299D01*
X128824162Y-96398333D01*
X128682117Y-96054557D01*
X128535713Y-95907898D01*
X128720317Y-95873162D01*
X128936441Y-95734090D01*
X129041726Y-95580000D01*
X130674895Y-95580000D01*
X130765910Y-95721441D01*
X130978110Y-95866431D01*
X131230000Y-95917440D01*
X132930000Y-95917440D01*
X133165317Y-95873162D01*
X133381441Y-95734090D01*
X133486726Y-95580000D01*
X135119895Y-95580000D01*
X135210910Y-95721441D01*
X135423110Y-95866431D01*
X135675000Y-95917440D01*
X135932500Y-95917440D01*
X135669308Y-96180173D01*
X135526662Y-96523701D01*
X135526338Y-96895667D01*
X135624049Y-97132147D01*
X135439683Y-97166838D01*
X135223559Y-97305910D01*
X135078569Y-97518110D01*
X135027560Y-97770000D01*
X135027560Y-98670000D01*
X135071838Y-98905317D01*
X135210910Y-99121441D01*
X135423110Y-99266431D01*
X135675000Y-99317440D01*
X135765000Y-99317440D01*
X135765000Y-99437560D01*
X135675000Y-99437560D01*
X135439683Y-99481838D01*
X135223559Y-99620910D01*
X135078569Y-99833110D01*
X135027560Y-100085000D01*
X135027560Y-100985000D01*
X135071838Y-101220317D01*
X135210910Y-101436441D01*
X135423110Y-101581431D01*
X135675000Y-101632440D01*
X137375000Y-101632440D01*
X137610317Y-101588162D01*
X137826441Y-101449090D01*
X137971431Y-101236890D01*
X138022440Y-100985000D01*
X138022440Y-100085000D01*
X137978162Y-99849683D01*
X137839090Y-99633559D01*
X137626890Y-99488569D01*
X137375000Y-99437560D01*
X137285000Y-99437560D01*
X137285000Y-99317440D01*
X137375000Y-99317440D01*
X137610317Y-99273162D01*
X137826441Y-99134090D01*
X137971431Y-98921890D01*
X138022440Y-98670000D01*
X138022440Y-97770000D01*
X137978162Y-97534683D01*
X137839090Y-97318559D01*
X137626890Y-97173569D01*
X137375000Y-97122560D01*
X137302801Y-97122560D01*
X137396338Y-96897299D01*
X137396662Y-96525333D01*
X137254617Y-96181557D01*
X136991827Y-95918308D01*
X136989737Y-95917440D01*
X137375000Y-95917440D01*
X137610317Y-95873162D01*
X137826441Y-95734090D01*
X137971431Y-95521890D01*
X138022440Y-95270000D01*
X138022440Y-94370000D01*
X137978162Y-94134683D01*
X137839090Y-93918559D01*
X137626890Y-93773569D01*
X137375000Y-93722560D01*
X135675000Y-93722560D01*
X135439683Y-93766838D01*
X135223559Y-93905910D01*
X135118274Y-94060000D01*
X134522637Y-94060000D01*
X134640943Y-94011117D01*
X134904192Y-93748327D01*
X135046838Y-93404799D01*
X135047162Y-93032833D01*
X134905117Y-92689057D01*
X134642327Y-92425808D01*
X134298799Y-92283162D01*
X133998924Y-92282901D01*
X133921500Y-92267500D01*
X131704375Y-92267500D01*
X132013285Y-92206054D01*
X132495054Y-91884147D01*
X132816961Y-91402378D01*
X132930000Y-90834093D01*
X132930000Y-90775907D01*
X132816961Y-90207622D01*
X132495054Y-89725853D01*
X132321667Y-89610000D01*
X138355000Y-89610000D01*
X138355000Y-117400000D01*
G36*
X129032000Y-90678000D02*
X129052000Y-90678000D01*
X129052000Y-90932000D01*
X129032000Y-90932000D01*
X129032000Y-92125155D01*
X129261890Y-92246476D01*
X129671924Y-92076645D01*
X130100183Y-91686358D01*
X130167298Y-91543447D01*
X130394946Y-91884147D01*
X130876715Y-92206054D01*
X131185625Y-92267500D01*
X130429000Y-92267500D01*
X130138160Y-92325352D01*
X129891599Y-92490099D01*
X129415698Y-92966000D01*
X125409802Y-92966000D01*
X125061768Y-92617966D01*
X124933901Y-92426599D01*
X124788404Y-92281102D01*
X124910317Y-92258162D01*
X125126441Y-92119090D01*
X125271431Y-91906890D01*
X125285086Y-91839459D01*
X125314946Y-91884147D01*
X125796715Y-92206054D01*
X126365000Y-92319093D01*
X126933285Y-92206054D01*
X127415054Y-91884147D01*
X127642702Y-91543447D01*
X127709817Y-91686358D01*
X128138076Y-92076645D01*
X128548110Y-92246476D01*
X128778000Y-92125155D01*
X128778000Y-90932000D01*
X128758000Y-90932000D01*
X128758000Y-90678000D01*
X128778000Y-90678000D01*
X128778000Y-90658000D01*
X129032000Y-90658000D01*
X129032000Y-90678000D01*
X129032000Y-90678000D01*
G37*
X129032000Y-90678000D02*
X129052000Y-90678000D01*
X129052000Y-90932000D01*
X129032000Y-90932000D01*
X129032000Y-92125155D01*
X129261890Y-92246476D01*
X129671924Y-92076645D01*
X130100183Y-91686358D01*
X130167298Y-91543447D01*
X130394946Y-91884147D01*
X130876715Y-92206054D01*
X131185625Y-92267500D01*
X130429000Y-92267500D01*
X130138160Y-92325352D01*
X129891599Y-92490099D01*
X129415698Y-92966000D01*
X125409802Y-92966000D01*
X125061768Y-92617966D01*
X124933901Y-92426599D01*
X124788404Y-92281102D01*
X124910317Y-92258162D01*
X125126441Y-92119090D01*
X125271431Y-91906890D01*
X125285086Y-91839459D01*
X125314946Y-91884147D01*
X125796715Y-92206054D01*
X126365000Y-92319093D01*
X126933285Y-92206054D01*
X127415054Y-91884147D01*
X127642702Y-91543447D01*
X127709817Y-91686358D01*
X128138076Y-92076645D01*
X128548110Y-92246476D01*
X128778000Y-92125155D01*
X128778000Y-90932000D01*
X128758000Y-90932000D01*
X128758000Y-90678000D01*
X128778000Y-90678000D01*
X128778000Y-90658000D01*
X129032000Y-90658000D01*
X129032000Y-90678000D01*
M02*
