G04 #@! TF.FileFunction,Copper,L2,Bot,Signal*
%FSLAX46Y46*%
G04 Gerber Fmt 4.6, Leading zero omitted, Abs format (unit mm)*
G04 Created by KiCad (PCBNEW 4.0.7) date 07/07/18 12:03:53*
%MOMM*%
%LPD*%
G01*
G04 APERTURE LIST*
%ADD10C,0.100000*%
%ADD11R,2.000000X1.700000*%
%ADD12R,1.700000X1.700000*%
%ADD13O,1.700000X1.700000*%
%ADD14C,0.600000*%
%ADD15C,0.250000*%
%ADD16C,0.254000*%
G04 APERTURE END LIST*
D10*
D11*
X119285000Y-102235000D03*
X123285000Y-102235000D03*
X123095000Y-107950000D03*
X127095000Y-107950000D03*
X127540000Y-113665000D03*
X131540000Y-113665000D03*
X123285000Y-113665000D03*
X119285000Y-113665000D03*
X127730000Y-96520000D03*
X123730000Y-96520000D03*
X131540000Y-102235000D03*
X127540000Y-102235000D03*
X135985000Y-107950000D03*
X131985000Y-107950000D03*
X132620000Y-96520000D03*
X136620000Y-96520000D03*
D12*
X123825000Y-90805000D03*
D13*
X126365000Y-90805000D03*
X128905000Y-90805000D03*
X131445000Y-90805000D03*
D14*
X118745000Y-95186500D03*
X126746000Y-107950000D03*
X125285500Y-109664500D03*
X131635500Y-113601500D03*
X123253500Y-113665000D03*
X121031000Y-105473500D03*
X121031000Y-98615500D03*
X123444000Y-96456500D03*
X118427500Y-98234500D03*
X125222000Y-106108500D03*
X127508000Y-101981000D03*
X127889000Y-96583500D03*
X124206000Y-110871000D03*
X131508500Y-102108000D03*
X131953000Y-111569500D03*
X132080000Y-107950000D03*
X136461500Y-96710500D03*
X135953500Y-107886500D03*
X136207500Y-111950500D03*
X134112000Y-93218000D03*
D15*
X119285000Y-102235000D02*
X119285000Y-99091500D01*
X118745000Y-97028000D02*
X118745000Y-95186500D01*
X119380000Y-97663000D02*
X118745000Y-97028000D01*
X119380000Y-98996500D02*
X119380000Y-97663000D01*
X119285000Y-99091500D02*
X119380000Y-98996500D01*
X123095000Y-107950000D02*
X123095000Y-102425000D01*
X123095000Y-102425000D02*
X123285000Y-102235000D01*
X126746000Y-107950000D02*
X127095000Y-107950000D01*
X127540000Y-113665000D02*
X125857000Y-113665000D01*
X125285500Y-113093500D02*
X125285500Y-109664500D01*
X125857000Y-113665000D02*
X125285500Y-113093500D01*
X131635500Y-113601500D02*
X131572000Y-113665000D01*
X131572000Y-113665000D02*
X131540000Y-113665000D01*
X123253500Y-113665000D02*
X123285000Y-113665000D01*
X123444000Y-96456500D02*
X123507500Y-96520000D01*
X123507500Y-96520000D02*
X123730000Y-96520000D01*
X123285000Y-113665000D02*
X122174000Y-113665000D01*
X122174000Y-113665000D02*
X121031000Y-112522000D01*
X121031000Y-112522000D02*
X121031000Y-105473500D01*
X121031000Y-105473500D02*
X121031000Y-98615500D01*
X121729500Y-96329500D02*
X123539500Y-96329500D01*
X121031000Y-98615500D02*
X121031000Y-97028000D01*
X121031000Y-97028000D02*
X121729500Y-96329500D01*
X123539500Y-96329500D02*
X123730000Y-96520000D01*
X119285000Y-113665000D02*
X117792500Y-113665000D01*
X117729000Y-98234500D02*
X118427500Y-98234500D01*
X117094000Y-98869500D02*
X117729000Y-98234500D01*
X117094000Y-112966500D02*
X117094000Y-98869500D01*
X117792500Y-113665000D02*
X117094000Y-112966500D01*
X127508000Y-101981000D02*
X127540000Y-102013000D01*
X127540000Y-102013000D02*
X127540000Y-102235000D01*
X127889000Y-96583500D02*
X127825500Y-96520000D01*
X127825500Y-96520000D02*
X127730000Y-96520000D01*
X125222000Y-103060500D02*
X125222000Y-96901000D01*
X125603000Y-96520000D02*
X127730000Y-96520000D01*
X125222000Y-96901000D02*
X125603000Y-96520000D01*
X124206000Y-110871000D02*
X123761500Y-110426500D01*
X123761500Y-110426500D02*
X123761500Y-110045500D01*
X123761500Y-110045500D02*
X125222000Y-108585000D01*
X125222000Y-108585000D02*
X125222000Y-106108500D01*
X125222000Y-106108500D02*
X125222000Y-103060500D01*
X125222000Y-103060500D02*
X126047500Y-102235000D01*
X126047500Y-102235000D02*
X127540000Y-102235000D01*
X131508500Y-102108000D02*
X131540000Y-102139500D01*
X131540000Y-102139500D02*
X131540000Y-102235000D01*
X130111500Y-108648500D02*
X130111500Y-106426000D01*
X130302000Y-102235000D02*
X131540000Y-102235000D01*
X129921000Y-102616000D02*
X130302000Y-102235000D01*
X129921000Y-106235500D02*
X129921000Y-102616000D01*
X130111500Y-106426000D02*
X129921000Y-106235500D01*
X131985000Y-107950000D02*
X130746500Y-107950000D01*
X131445000Y-111569500D02*
X131953000Y-111569500D01*
X130111500Y-110236000D02*
X131445000Y-111569500D01*
X130111500Y-108585000D02*
X130111500Y-108648500D01*
X130111500Y-108648500D02*
X130111500Y-110236000D01*
X130746500Y-107950000D02*
X130111500Y-108585000D01*
X132080000Y-107950000D02*
X131985000Y-107950000D01*
X136461500Y-96710500D02*
X136620000Y-96552000D01*
X136620000Y-96552000D02*
X136620000Y-96520000D01*
X135953500Y-107886500D02*
X135985000Y-107918000D01*
X135985000Y-107918000D02*
X135985000Y-107950000D01*
X134254750Y-106219750D02*
X134254750Y-111458250D01*
X134747000Y-111950500D02*
X136207500Y-111950500D01*
X134254750Y-111458250D02*
X134747000Y-111950500D01*
X136620000Y-96520000D02*
X134937500Y-96520000D01*
X134239000Y-106204000D02*
X134254750Y-106219750D01*
X134254750Y-106219750D02*
X135985000Y-107950000D01*
X134239000Y-97218500D02*
X134239000Y-106204000D01*
X134937500Y-96520000D02*
X134239000Y-97218500D01*
X136620000Y-96520000D02*
X136620000Y-94138500D01*
X135699500Y-93218000D02*
X134112000Y-93218000D01*
X136620000Y-94138500D02*
X135699500Y-93218000D01*
X126365000Y-90805000D02*
X126365000Y-91630500D01*
X126365000Y-91630500D02*
X127127000Y-92392500D01*
X127127000Y-92392500D02*
X131635500Y-92392500D01*
X131635500Y-92392500D02*
X132620000Y-93377000D01*
X132620000Y-93377000D02*
X132620000Y-96520000D01*
D16*
G36*
X138355000Y-117400000D02*
X116915000Y-117400000D01*
X116915000Y-113862302D01*
X117255099Y-114202401D01*
X117501660Y-114367148D01*
X117637560Y-114394180D01*
X117637560Y-114515000D01*
X117681838Y-114750317D01*
X117820910Y-114966441D01*
X118033110Y-115111431D01*
X118285000Y-115162440D01*
X120285000Y-115162440D01*
X120520317Y-115118162D01*
X120736441Y-114979090D01*
X120881431Y-114766890D01*
X120932440Y-114515000D01*
X120932440Y-113498242D01*
X121636599Y-114202401D01*
X121637560Y-114203043D01*
X121637560Y-114515000D01*
X121681838Y-114750317D01*
X121820910Y-114966441D01*
X122033110Y-115111431D01*
X122285000Y-115162440D01*
X124285000Y-115162440D01*
X124520317Y-115118162D01*
X124736441Y-114979090D01*
X124881431Y-114766890D01*
X124932440Y-114515000D01*
X124932440Y-113815242D01*
X125319599Y-114202401D01*
X125566161Y-114367148D01*
X125857000Y-114425000D01*
X125892560Y-114425000D01*
X125892560Y-114515000D01*
X125936838Y-114750317D01*
X126075910Y-114966441D01*
X126288110Y-115111431D01*
X126540000Y-115162440D01*
X128540000Y-115162440D01*
X128775317Y-115118162D01*
X128991441Y-114979090D01*
X129136431Y-114766890D01*
X129187440Y-114515000D01*
X129187440Y-113950750D01*
X129905000Y-113950750D01*
X129905000Y-114641310D01*
X130001673Y-114874699D01*
X130180302Y-115053327D01*
X130413691Y-115150000D01*
X131254250Y-115150000D01*
X131413000Y-114991250D01*
X131413000Y-113792000D01*
X131667000Y-113792000D01*
X131667000Y-114991250D01*
X131825750Y-115150000D01*
X132666309Y-115150000D01*
X132899698Y-115053327D01*
X133078327Y-114874699D01*
X133175000Y-114641310D01*
X133175000Y-113950750D01*
X133016250Y-113792000D01*
X131667000Y-113792000D01*
X131413000Y-113792000D01*
X130063750Y-113792000D01*
X129905000Y-113950750D01*
X129187440Y-113950750D01*
X129187440Y-112815000D01*
X129143162Y-112579683D01*
X129004090Y-112363559D01*
X128791890Y-112218569D01*
X128540000Y-112167560D01*
X126540000Y-112167560D01*
X126304683Y-112211838D01*
X126088559Y-112350910D01*
X126045500Y-112413929D01*
X126045500Y-110226963D01*
X126077692Y-110194827D01*
X126220338Y-109851299D01*
X126220662Y-109479333D01*
X126207484Y-109447440D01*
X128095000Y-109447440D01*
X128330317Y-109403162D01*
X128546441Y-109264090D01*
X128691431Y-109051890D01*
X128742440Y-108800000D01*
X128742440Y-107100000D01*
X128698162Y-106864683D01*
X128559090Y-106648559D01*
X128346890Y-106503569D01*
X128095000Y-106452560D01*
X126095000Y-106452560D01*
X126091244Y-106453267D01*
X126156838Y-106295299D01*
X126157162Y-105923333D01*
X126015117Y-105579557D01*
X125982000Y-105546382D01*
X125982000Y-103390501D01*
X126075910Y-103536441D01*
X126288110Y-103681431D01*
X126540000Y-103732440D01*
X128540000Y-103732440D01*
X128775317Y-103688162D01*
X128991441Y-103549090D01*
X129136431Y-103336890D01*
X129161000Y-103215565D01*
X129161000Y-106235500D01*
X129218852Y-106526339D01*
X129351500Y-106724861D01*
X129351500Y-110236000D01*
X129409352Y-110526839D01*
X129574099Y-110773401D01*
X130907599Y-112106901D01*
X131017000Y-112180000D01*
X130413691Y-112180000D01*
X130180302Y-112276673D01*
X130001673Y-112455301D01*
X129905000Y-112688690D01*
X129905000Y-113379250D01*
X130063750Y-113538000D01*
X131413000Y-113538000D01*
X131413000Y-113518000D01*
X131667000Y-113518000D01*
X131667000Y-113538000D01*
X133016250Y-113538000D01*
X133175000Y-113379250D01*
X133175000Y-112688690D01*
X133078327Y-112455301D01*
X132899698Y-112276673D01*
X132666309Y-112180000D01*
X132664879Y-112180000D01*
X132745192Y-112099827D01*
X132887838Y-111756299D01*
X132888162Y-111384333D01*
X132746117Y-111040557D01*
X132483327Y-110777308D01*
X132139799Y-110634662D01*
X131767833Y-110634338D01*
X131638202Y-110687900D01*
X130871500Y-109921198D01*
X130871500Y-109424456D01*
X130985000Y-109447440D01*
X132985000Y-109447440D01*
X133220317Y-109403162D01*
X133436441Y-109264090D01*
X133494750Y-109178752D01*
X133494750Y-111458250D01*
X133552602Y-111749089D01*
X133717349Y-111995651D01*
X134209599Y-112487901D01*
X134456161Y-112652648D01*
X134747000Y-112710500D01*
X135645037Y-112710500D01*
X135677173Y-112742692D01*
X136020701Y-112885338D01*
X136392667Y-112885662D01*
X136736443Y-112743617D01*
X136999692Y-112480827D01*
X137142338Y-112137299D01*
X137142662Y-111765333D01*
X137000617Y-111421557D01*
X136737827Y-111158308D01*
X136394299Y-111015662D01*
X136022333Y-111015338D01*
X135678557Y-111157383D01*
X135645382Y-111190500D01*
X135061802Y-111190500D01*
X135014750Y-111143448D01*
X135014750Y-109447440D01*
X136985000Y-109447440D01*
X137220317Y-109403162D01*
X137436441Y-109264090D01*
X137581431Y-109051890D01*
X137632440Y-108800000D01*
X137632440Y-107100000D01*
X137588162Y-106864683D01*
X137449090Y-106648559D01*
X137236890Y-106503569D01*
X136985000Y-106452560D01*
X135562362Y-106452560D01*
X134999000Y-105889198D01*
X134999000Y-97533302D01*
X135002608Y-97529694D01*
X135016838Y-97605317D01*
X135155910Y-97821441D01*
X135368110Y-97966431D01*
X135620000Y-98017440D01*
X137620000Y-98017440D01*
X137855317Y-97973162D01*
X138071441Y-97834090D01*
X138216431Y-97621890D01*
X138267440Y-97370000D01*
X138267440Y-95670000D01*
X138223162Y-95434683D01*
X138084090Y-95218559D01*
X137871890Y-95073569D01*
X137620000Y-95022560D01*
X137380000Y-95022560D01*
X137380000Y-94138500D01*
X137322148Y-93847661D01*
X137157401Y-93601099D01*
X136236901Y-92680599D01*
X135990339Y-92515852D01*
X135699500Y-92458000D01*
X134674463Y-92458000D01*
X134642327Y-92425808D01*
X134298799Y-92283162D01*
X133926833Y-92282838D01*
X133583057Y-92424883D01*
X133319808Y-92687673D01*
X133218656Y-92931273D01*
X133157401Y-92839599D01*
X132319350Y-92001548D01*
X132495054Y-91884147D01*
X132816961Y-91402378D01*
X132930000Y-90834093D01*
X132930000Y-90775907D01*
X132816961Y-90207622D01*
X132495054Y-89725853D01*
X132321667Y-89610000D01*
X138355000Y-89610000D01*
X138355000Y-117400000D01*
X138355000Y-117400000D01*
G37*
X138355000Y-117400000D02*
X116915000Y-117400000D01*
X116915000Y-113862302D01*
X117255099Y-114202401D01*
X117501660Y-114367148D01*
X117637560Y-114394180D01*
X117637560Y-114515000D01*
X117681838Y-114750317D01*
X117820910Y-114966441D01*
X118033110Y-115111431D01*
X118285000Y-115162440D01*
X120285000Y-115162440D01*
X120520317Y-115118162D01*
X120736441Y-114979090D01*
X120881431Y-114766890D01*
X120932440Y-114515000D01*
X120932440Y-113498242D01*
X121636599Y-114202401D01*
X121637560Y-114203043D01*
X121637560Y-114515000D01*
X121681838Y-114750317D01*
X121820910Y-114966441D01*
X122033110Y-115111431D01*
X122285000Y-115162440D01*
X124285000Y-115162440D01*
X124520317Y-115118162D01*
X124736441Y-114979090D01*
X124881431Y-114766890D01*
X124932440Y-114515000D01*
X124932440Y-113815242D01*
X125319599Y-114202401D01*
X125566161Y-114367148D01*
X125857000Y-114425000D01*
X125892560Y-114425000D01*
X125892560Y-114515000D01*
X125936838Y-114750317D01*
X126075910Y-114966441D01*
X126288110Y-115111431D01*
X126540000Y-115162440D01*
X128540000Y-115162440D01*
X128775317Y-115118162D01*
X128991441Y-114979090D01*
X129136431Y-114766890D01*
X129187440Y-114515000D01*
X129187440Y-113950750D01*
X129905000Y-113950750D01*
X129905000Y-114641310D01*
X130001673Y-114874699D01*
X130180302Y-115053327D01*
X130413691Y-115150000D01*
X131254250Y-115150000D01*
X131413000Y-114991250D01*
X131413000Y-113792000D01*
X131667000Y-113792000D01*
X131667000Y-114991250D01*
X131825750Y-115150000D01*
X132666309Y-115150000D01*
X132899698Y-115053327D01*
X133078327Y-114874699D01*
X133175000Y-114641310D01*
X133175000Y-113950750D01*
X133016250Y-113792000D01*
X131667000Y-113792000D01*
X131413000Y-113792000D01*
X130063750Y-113792000D01*
X129905000Y-113950750D01*
X129187440Y-113950750D01*
X129187440Y-112815000D01*
X129143162Y-112579683D01*
X129004090Y-112363559D01*
X128791890Y-112218569D01*
X128540000Y-112167560D01*
X126540000Y-112167560D01*
X126304683Y-112211838D01*
X126088559Y-112350910D01*
X126045500Y-112413929D01*
X126045500Y-110226963D01*
X126077692Y-110194827D01*
X126220338Y-109851299D01*
X126220662Y-109479333D01*
X126207484Y-109447440D01*
X128095000Y-109447440D01*
X128330317Y-109403162D01*
X128546441Y-109264090D01*
X128691431Y-109051890D01*
X128742440Y-108800000D01*
X128742440Y-107100000D01*
X128698162Y-106864683D01*
X128559090Y-106648559D01*
X128346890Y-106503569D01*
X128095000Y-106452560D01*
X126095000Y-106452560D01*
X126091244Y-106453267D01*
X126156838Y-106295299D01*
X126157162Y-105923333D01*
X126015117Y-105579557D01*
X125982000Y-105546382D01*
X125982000Y-103390501D01*
X126075910Y-103536441D01*
X126288110Y-103681431D01*
X126540000Y-103732440D01*
X128540000Y-103732440D01*
X128775317Y-103688162D01*
X128991441Y-103549090D01*
X129136431Y-103336890D01*
X129161000Y-103215565D01*
X129161000Y-106235500D01*
X129218852Y-106526339D01*
X129351500Y-106724861D01*
X129351500Y-110236000D01*
X129409352Y-110526839D01*
X129574099Y-110773401D01*
X130907599Y-112106901D01*
X131017000Y-112180000D01*
X130413691Y-112180000D01*
X130180302Y-112276673D01*
X130001673Y-112455301D01*
X129905000Y-112688690D01*
X129905000Y-113379250D01*
X130063750Y-113538000D01*
X131413000Y-113538000D01*
X131413000Y-113518000D01*
X131667000Y-113518000D01*
X131667000Y-113538000D01*
X133016250Y-113538000D01*
X133175000Y-113379250D01*
X133175000Y-112688690D01*
X133078327Y-112455301D01*
X132899698Y-112276673D01*
X132666309Y-112180000D01*
X132664879Y-112180000D01*
X132745192Y-112099827D01*
X132887838Y-111756299D01*
X132888162Y-111384333D01*
X132746117Y-111040557D01*
X132483327Y-110777308D01*
X132139799Y-110634662D01*
X131767833Y-110634338D01*
X131638202Y-110687900D01*
X130871500Y-109921198D01*
X130871500Y-109424456D01*
X130985000Y-109447440D01*
X132985000Y-109447440D01*
X133220317Y-109403162D01*
X133436441Y-109264090D01*
X133494750Y-109178752D01*
X133494750Y-111458250D01*
X133552602Y-111749089D01*
X133717349Y-111995651D01*
X134209599Y-112487901D01*
X134456161Y-112652648D01*
X134747000Y-112710500D01*
X135645037Y-112710500D01*
X135677173Y-112742692D01*
X136020701Y-112885338D01*
X136392667Y-112885662D01*
X136736443Y-112743617D01*
X136999692Y-112480827D01*
X137142338Y-112137299D01*
X137142662Y-111765333D01*
X137000617Y-111421557D01*
X136737827Y-111158308D01*
X136394299Y-111015662D01*
X136022333Y-111015338D01*
X135678557Y-111157383D01*
X135645382Y-111190500D01*
X135061802Y-111190500D01*
X135014750Y-111143448D01*
X135014750Y-109447440D01*
X136985000Y-109447440D01*
X137220317Y-109403162D01*
X137436441Y-109264090D01*
X137581431Y-109051890D01*
X137632440Y-108800000D01*
X137632440Y-107100000D01*
X137588162Y-106864683D01*
X137449090Y-106648559D01*
X137236890Y-106503569D01*
X136985000Y-106452560D01*
X135562362Y-106452560D01*
X134999000Y-105889198D01*
X134999000Y-97533302D01*
X135002608Y-97529694D01*
X135016838Y-97605317D01*
X135155910Y-97821441D01*
X135368110Y-97966431D01*
X135620000Y-98017440D01*
X137620000Y-98017440D01*
X137855317Y-97973162D01*
X138071441Y-97834090D01*
X138216431Y-97621890D01*
X138267440Y-97370000D01*
X138267440Y-95670000D01*
X138223162Y-95434683D01*
X138084090Y-95218559D01*
X137871890Y-95073569D01*
X137620000Y-95022560D01*
X137380000Y-95022560D01*
X137380000Y-94138500D01*
X137322148Y-93847661D01*
X137157401Y-93601099D01*
X136236901Y-92680599D01*
X135990339Y-92515852D01*
X135699500Y-92458000D01*
X134674463Y-92458000D01*
X134642327Y-92425808D01*
X134298799Y-92283162D01*
X133926833Y-92282838D01*
X133583057Y-92424883D01*
X133319808Y-92687673D01*
X133218656Y-92931273D01*
X133157401Y-92839599D01*
X132319350Y-92001548D01*
X132495054Y-91884147D01*
X132816961Y-91402378D01*
X132930000Y-90834093D01*
X132930000Y-90775907D01*
X132816961Y-90207622D01*
X132495054Y-89725853D01*
X132321667Y-89610000D01*
X138355000Y-89610000D01*
X138355000Y-117400000D01*
G36*
X129032000Y-90678000D02*
X129052000Y-90678000D01*
X129052000Y-90932000D01*
X129032000Y-90932000D01*
X129032000Y-90952000D01*
X128778000Y-90952000D01*
X128778000Y-90932000D01*
X128758000Y-90932000D01*
X128758000Y-90678000D01*
X128778000Y-90678000D01*
X128778000Y-90658000D01*
X129032000Y-90658000D01*
X129032000Y-90678000D01*
X129032000Y-90678000D01*
G37*
X129032000Y-90678000D02*
X129052000Y-90678000D01*
X129052000Y-90932000D01*
X129032000Y-90932000D01*
X129032000Y-90952000D01*
X128778000Y-90952000D01*
X128778000Y-90932000D01*
X128758000Y-90932000D01*
X128758000Y-90678000D01*
X128778000Y-90678000D01*
X128778000Y-90658000D01*
X129032000Y-90658000D01*
X129032000Y-90678000D01*
M02*
