G04 #@! TF.FileFunction,Legend,Top*
%FSLAX46Y46*%
G04 Gerber Fmt 4.6, Leading zero omitted, Abs format (unit mm)*
G04 Created by KiCad (PCBNEW 4.0.7) date 07/07/18 12:03:53*
%MOMM*%
%LPD*%
G01*
G04 APERTURE LIST*
%ADD10C,0.100000*%
%ADD11C,0.120000*%
%ADD12C,0.150000*%
G04 APERTURE END LIST*
D10*
D11*
X119845000Y-98170000D02*
X120145000Y-98170000D01*
X120145000Y-98170000D02*
X120145000Y-94870000D01*
X120145000Y-94870000D02*
X119845000Y-94870000D01*
X117645000Y-98170000D02*
X117345000Y-98170000D01*
X117345000Y-98170000D02*
X117345000Y-94870000D01*
X117345000Y-94870000D02*
X117645000Y-94870000D01*
X124290000Y-98170000D02*
X124590000Y-98170000D01*
X124590000Y-98170000D02*
X124590000Y-94870000D01*
X124590000Y-94870000D02*
X124290000Y-94870000D01*
X122090000Y-98170000D02*
X121790000Y-98170000D01*
X121790000Y-98170000D02*
X121790000Y-94870000D01*
X121790000Y-94870000D02*
X122090000Y-94870000D01*
X128735000Y-98170000D02*
X129035000Y-98170000D01*
X129035000Y-98170000D02*
X129035000Y-94870000D01*
X129035000Y-94870000D02*
X128735000Y-94870000D01*
X126535000Y-98170000D02*
X126235000Y-98170000D01*
X126235000Y-98170000D02*
X126235000Y-94870000D01*
X126235000Y-94870000D02*
X126535000Y-94870000D01*
X133180000Y-98170000D02*
X133480000Y-98170000D01*
X133480000Y-98170000D02*
X133480000Y-94870000D01*
X133480000Y-94870000D02*
X133180000Y-94870000D01*
X130980000Y-98170000D02*
X130680000Y-98170000D01*
X130680000Y-98170000D02*
X130680000Y-94870000D01*
X130680000Y-94870000D02*
X130980000Y-94870000D01*
X137625000Y-98170000D02*
X137925000Y-98170000D01*
X137925000Y-98170000D02*
X137925000Y-94870000D01*
X137925000Y-94870000D02*
X137625000Y-94870000D01*
X135425000Y-98170000D02*
X135125000Y-98170000D01*
X135125000Y-98170000D02*
X135125000Y-94870000D01*
X135125000Y-94870000D02*
X135425000Y-94870000D01*
X117645000Y-100585000D02*
X117345000Y-100585000D01*
X117345000Y-100585000D02*
X117345000Y-103885000D01*
X117345000Y-103885000D02*
X117645000Y-103885000D01*
X119845000Y-100585000D02*
X120145000Y-100585000D01*
X120145000Y-100585000D02*
X120145000Y-103885000D01*
X120145000Y-103885000D02*
X119845000Y-103885000D01*
X122090000Y-100585000D02*
X121790000Y-100585000D01*
X121790000Y-100585000D02*
X121790000Y-103885000D01*
X121790000Y-103885000D02*
X122090000Y-103885000D01*
X124290000Y-100585000D02*
X124590000Y-100585000D01*
X124590000Y-100585000D02*
X124590000Y-103885000D01*
X124590000Y-103885000D02*
X124290000Y-103885000D01*
X126535000Y-100585000D02*
X126235000Y-100585000D01*
X126235000Y-100585000D02*
X126235000Y-103885000D01*
X126235000Y-103885000D02*
X126535000Y-103885000D01*
X128735000Y-100585000D02*
X129035000Y-100585000D01*
X129035000Y-100585000D02*
X129035000Y-103885000D01*
X129035000Y-103885000D02*
X128735000Y-103885000D01*
X130980000Y-100585000D02*
X130680000Y-100585000D01*
X130680000Y-100585000D02*
X130680000Y-103885000D01*
X130680000Y-103885000D02*
X130980000Y-103885000D01*
X133180000Y-100585000D02*
X133480000Y-100585000D01*
X133480000Y-100585000D02*
X133480000Y-103885000D01*
X133480000Y-103885000D02*
X133180000Y-103885000D01*
X135425000Y-100585000D02*
X135125000Y-100585000D01*
X135125000Y-100585000D02*
X135125000Y-103885000D01*
X135125000Y-103885000D02*
X135425000Y-103885000D01*
X137625000Y-100585000D02*
X137925000Y-100585000D01*
X137925000Y-100585000D02*
X137925000Y-103885000D01*
X137925000Y-103885000D02*
X137625000Y-103885000D01*
X117645000Y-106300000D02*
X117345000Y-106300000D01*
X117345000Y-106300000D02*
X117345000Y-109600000D01*
X117345000Y-109600000D02*
X117645000Y-109600000D01*
X119845000Y-106300000D02*
X120145000Y-106300000D01*
X120145000Y-106300000D02*
X120145000Y-109600000D01*
X120145000Y-109600000D02*
X119845000Y-109600000D01*
X122090000Y-106300000D02*
X121790000Y-106300000D01*
X121790000Y-106300000D02*
X121790000Y-109600000D01*
X121790000Y-109600000D02*
X122090000Y-109600000D01*
X124290000Y-106300000D02*
X124590000Y-106300000D01*
X124590000Y-106300000D02*
X124590000Y-109600000D01*
X124590000Y-109600000D02*
X124290000Y-109600000D01*
X126535000Y-106300000D02*
X126235000Y-106300000D01*
X126235000Y-106300000D02*
X126235000Y-109600000D01*
X126235000Y-109600000D02*
X126535000Y-109600000D01*
X128735000Y-106300000D02*
X129035000Y-106300000D01*
X129035000Y-106300000D02*
X129035000Y-109600000D01*
X129035000Y-109600000D02*
X128735000Y-109600000D01*
X130980000Y-106300000D02*
X130680000Y-106300000D01*
X130680000Y-106300000D02*
X130680000Y-109600000D01*
X130680000Y-109600000D02*
X130980000Y-109600000D01*
X133180000Y-106300000D02*
X133480000Y-106300000D01*
X133480000Y-106300000D02*
X133480000Y-109600000D01*
X133480000Y-109600000D02*
X133180000Y-109600000D01*
X135425000Y-106300000D02*
X135125000Y-106300000D01*
X135125000Y-106300000D02*
X135125000Y-109600000D01*
X135125000Y-109600000D02*
X135425000Y-109600000D01*
X137625000Y-106300000D02*
X137925000Y-106300000D01*
X137925000Y-106300000D02*
X137925000Y-109600000D01*
X137925000Y-109600000D02*
X137625000Y-109600000D01*
X117645000Y-112015000D02*
X117345000Y-112015000D01*
X117345000Y-112015000D02*
X117345000Y-115315000D01*
X117345000Y-115315000D02*
X117645000Y-115315000D01*
X119845000Y-112015000D02*
X120145000Y-112015000D01*
X120145000Y-112015000D02*
X120145000Y-115315000D01*
X120145000Y-115315000D02*
X119845000Y-115315000D01*
X122090000Y-112015000D02*
X121790000Y-112015000D01*
X121790000Y-112015000D02*
X121790000Y-115315000D01*
X121790000Y-115315000D02*
X122090000Y-115315000D01*
X124290000Y-112015000D02*
X124590000Y-112015000D01*
X124590000Y-112015000D02*
X124590000Y-115315000D01*
X124590000Y-115315000D02*
X124290000Y-115315000D01*
X126535000Y-112015000D02*
X126235000Y-112015000D01*
X126235000Y-112015000D02*
X126235000Y-115315000D01*
X126235000Y-115315000D02*
X126535000Y-115315000D01*
X128735000Y-112015000D02*
X129035000Y-112015000D01*
X129035000Y-112015000D02*
X129035000Y-115315000D01*
X129035000Y-115315000D02*
X128735000Y-115315000D01*
X130980000Y-112015000D02*
X130680000Y-112015000D01*
X130680000Y-112015000D02*
X130680000Y-115315000D01*
X130680000Y-115315000D02*
X130980000Y-115315000D01*
X133180000Y-112015000D02*
X133480000Y-112015000D01*
X133480000Y-112015000D02*
X133480000Y-115315000D01*
X133480000Y-115315000D02*
X133180000Y-115315000D01*
X135425000Y-112015000D02*
X135125000Y-112015000D01*
X135125000Y-112015000D02*
X135125000Y-115315000D01*
X135125000Y-115315000D02*
X135425000Y-115315000D01*
X137625000Y-112015000D02*
X137925000Y-112015000D01*
X137925000Y-112015000D02*
X137925000Y-115315000D01*
X137925000Y-115315000D02*
X137625000Y-115315000D01*
X125095000Y-92135000D02*
X132775000Y-92135000D01*
X132775000Y-92135000D02*
X132775000Y-89475000D01*
X132775000Y-89475000D02*
X125095000Y-89475000D01*
X125095000Y-89475000D02*
X125095000Y-92135000D01*
X123825000Y-92135000D02*
X122495000Y-92135000D01*
X122495000Y-92135000D02*
X122495000Y-90805000D01*
D12*
X117411667Y-93749762D02*
X117554524Y-93797381D01*
X117792620Y-93797381D01*
X117887858Y-93749762D01*
X117935477Y-93702143D01*
X117983096Y-93606905D01*
X117983096Y-93511667D01*
X117935477Y-93416429D01*
X117887858Y-93368810D01*
X117792620Y-93321190D01*
X117602143Y-93273571D01*
X117506905Y-93225952D01*
X117459286Y-93178333D01*
X117411667Y-93083095D01*
X117411667Y-92987857D01*
X117459286Y-92892619D01*
X117506905Y-92845000D01*
X117602143Y-92797381D01*
X117840239Y-92797381D01*
X117983096Y-92845000D01*
X118316429Y-92797381D02*
X118554524Y-93797381D01*
X118745001Y-93083095D01*
X118935477Y-93797381D01*
X119173572Y-92797381D01*
X120078334Y-93797381D02*
X119506905Y-93797381D01*
X119792619Y-93797381D02*
X119792619Y-92797381D01*
X119697381Y-92940238D01*
X119602143Y-93035476D01*
X119506905Y-93083095D01*
X121856667Y-93749762D02*
X121999524Y-93797381D01*
X122237620Y-93797381D01*
X122332858Y-93749762D01*
X122380477Y-93702143D01*
X122428096Y-93606905D01*
X122428096Y-93511667D01*
X122380477Y-93416429D01*
X122332858Y-93368810D01*
X122237620Y-93321190D01*
X122047143Y-93273571D01*
X121951905Y-93225952D01*
X121904286Y-93178333D01*
X121856667Y-93083095D01*
X121856667Y-92987857D01*
X121904286Y-92892619D01*
X121951905Y-92845000D01*
X122047143Y-92797381D01*
X122285239Y-92797381D01*
X122428096Y-92845000D01*
X122761429Y-92797381D02*
X122999524Y-93797381D01*
X123190001Y-93083095D01*
X123380477Y-93797381D01*
X123618572Y-92797381D01*
X123951905Y-92892619D02*
X123999524Y-92845000D01*
X124094762Y-92797381D01*
X124332858Y-92797381D01*
X124428096Y-92845000D01*
X124475715Y-92892619D01*
X124523334Y-92987857D01*
X124523334Y-93083095D01*
X124475715Y-93225952D01*
X123904286Y-93797381D01*
X124523334Y-93797381D01*
X126301667Y-93749762D02*
X126444524Y-93797381D01*
X126682620Y-93797381D01*
X126777858Y-93749762D01*
X126825477Y-93702143D01*
X126873096Y-93606905D01*
X126873096Y-93511667D01*
X126825477Y-93416429D01*
X126777858Y-93368810D01*
X126682620Y-93321190D01*
X126492143Y-93273571D01*
X126396905Y-93225952D01*
X126349286Y-93178333D01*
X126301667Y-93083095D01*
X126301667Y-92987857D01*
X126349286Y-92892619D01*
X126396905Y-92845000D01*
X126492143Y-92797381D01*
X126730239Y-92797381D01*
X126873096Y-92845000D01*
X127206429Y-92797381D02*
X127444524Y-93797381D01*
X127635001Y-93083095D01*
X127825477Y-93797381D01*
X128063572Y-92797381D01*
X128349286Y-92797381D02*
X128968334Y-92797381D01*
X128635000Y-93178333D01*
X128777858Y-93178333D01*
X128873096Y-93225952D01*
X128920715Y-93273571D01*
X128968334Y-93368810D01*
X128968334Y-93606905D01*
X128920715Y-93702143D01*
X128873096Y-93749762D01*
X128777858Y-93797381D01*
X128492143Y-93797381D01*
X128396905Y-93749762D01*
X128349286Y-93702143D01*
X130746667Y-93749762D02*
X130889524Y-93797381D01*
X131127620Y-93797381D01*
X131222858Y-93749762D01*
X131270477Y-93702143D01*
X131318096Y-93606905D01*
X131318096Y-93511667D01*
X131270477Y-93416429D01*
X131222858Y-93368810D01*
X131127620Y-93321190D01*
X130937143Y-93273571D01*
X130841905Y-93225952D01*
X130794286Y-93178333D01*
X130746667Y-93083095D01*
X130746667Y-92987857D01*
X130794286Y-92892619D01*
X130841905Y-92845000D01*
X130937143Y-92797381D01*
X131175239Y-92797381D01*
X131318096Y-92845000D01*
X131651429Y-92797381D02*
X131889524Y-93797381D01*
X132080001Y-93083095D01*
X132270477Y-93797381D01*
X132508572Y-92797381D01*
X133318096Y-93130714D02*
X133318096Y-93797381D01*
X133080000Y-92749762D02*
X132841905Y-93464048D01*
X133460953Y-93464048D01*
X135191667Y-93749762D02*
X135334524Y-93797381D01*
X135572620Y-93797381D01*
X135667858Y-93749762D01*
X135715477Y-93702143D01*
X135763096Y-93606905D01*
X135763096Y-93511667D01*
X135715477Y-93416429D01*
X135667858Y-93368810D01*
X135572620Y-93321190D01*
X135382143Y-93273571D01*
X135286905Y-93225952D01*
X135239286Y-93178333D01*
X135191667Y-93083095D01*
X135191667Y-92987857D01*
X135239286Y-92892619D01*
X135286905Y-92845000D01*
X135382143Y-92797381D01*
X135620239Y-92797381D01*
X135763096Y-92845000D01*
X136096429Y-92797381D02*
X136334524Y-93797381D01*
X136525001Y-93083095D01*
X136715477Y-93797381D01*
X136953572Y-92797381D01*
X137810715Y-92797381D02*
X137334524Y-92797381D01*
X137286905Y-93273571D01*
X137334524Y-93225952D01*
X137429762Y-93178333D01*
X137667858Y-93178333D01*
X137763096Y-93225952D01*
X137810715Y-93273571D01*
X137858334Y-93368810D01*
X137858334Y-93606905D01*
X137810715Y-93702143D01*
X137763096Y-93749762D01*
X137667858Y-93797381D01*
X137429762Y-93797381D01*
X137334524Y-93749762D01*
X137286905Y-93702143D01*
X117411667Y-100099762D02*
X117554524Y-100147381D01*
X117792620Y-100147381D01*
X117887858Y-100099762D01*
X117935477Y-100052143D01*
X117983096Y-99956905D01*
X117983096Y-99861667D01*
X117935477Y-99766429D01*
X117887858Y-99718810D01*
X117792620Y-99671190D01*
X117602143Y-99623571D01*
X117506905Y-99575952D01*
X117459286Y-99528333D01*
X117411667Y-99433095D01*
X117411667Y-99337857D01*
X117459286Y-99242619D01*
X117506905Y-99195000D01*
X117602143Y-99147381D01*
X117840239Y-99147381D01*
X117983096Y-99195000D01*
X118316429Y-99147381D02*
X118554524Y-100147381D01*
X118745001Y-99433095D01*
X118935477Y-100147381D01*
X119173572Y-99147381D01*
X119983096Y-99147381D02*
X119792619Y-99147381D01*
X119697381Y-99195000D01*
X119649762Y-99242619D01*
X119554524Y-99385476D01*
X119506905Y-99575952D01*
X119506905Y-99956905D01*
X119554524Y-100052143D01*
X119602143Y-100099762D01*
X119697381Y-100147381D01*
X119887858Y-100147381D01*
X119983096Y-100099762D01*
X120030715Y-100052143D01*
X120078334Y-99956905D01*
X120078334Y-99718810D01*
X120030715Y-99623571D01*
X119983096Y-99575952D01*
X119887858Y-99528333D01*
X119697381Y-99528333D01*
X119602143Y-99575952D01*
X119554524Y-99623571D01*
X119506905Y-99718810D01*
X121856667Y-100099762D02*
X121999524Y-100147381D01*
X122237620Y-100147381D01*
X122332858Y-100099762D01*
X122380477Y-100052143D01*
X122428096Y-99956905D01*
X122428096Y-99861667D01*
X122380477Y-99766429D01*
X122332858Y-99718810D01*
X122237620Y-99671190D01*
X122047143Y-99623571D01*
X121951905Y-99575952D01*
X121904286Y-99528333D01*
X121856667Y-99433095D01*
X121856667Y-99337857D01*
X121904286Y-99242619D01*
X121951905Y-99195000D01*
X122047143Y-99147381D01*
X122285239Y-99147381D01*
X122428096Y-99195000D01*
X122761429Y-99147381D02*
X122999524Y-100147381D01*
X123190001Y-99433095D01*
X123380477Y-100147381D01*
X123618572Y-99147381D01*
X123904286Y-99147381D02*
X124570953Y-99147381D01*
X124142381Y-100147381D01*
X126301667Y-100099762D02*
X126444524Y-100147381D01*
X126682620Y-100147381D01*
X126777858Y-100099762D01*
X126825477Y-100052143D01*
X126873096Y-99956905D01*
X126873096Y-99861667D01*
X126825477Y-99766429D01*
X126777858Y-99718810D01*
X126682620Y-99671190D01*
X126492143Y-99623571D01*
X126396905Y-99575952D01*
X126349286Y-99528333D01*
X126301667Y-99433095D01*
X126301667Y-99337857D01*
X126349286Y-99242619D01*
X126396905Y-99195000D01*
X126492143Y-99147381D01*
X126730239Y-99147381D01*
X126873096Y-99195000D01*
X127206429Y-99147381D02*
X127444524Y-100147381D01*
X127635001Y-99433095D01*
X127825477Y-100147381D01*
X128063572Y-99147381D01*
X128587381Y-99575952D02*
X128492143Y-99528333D01*
X128444524Y-99480714D01*
X128396905Y-99385476D01*
X128396905Y-99337857D01*
X128444524Y-99242619D01*
X128492143Y-99195000D01*
X128587381Y-99147381D01*
X128777858Y-99147381D01*
X128873096Y-99195000D01*
X128920715Y-99242619D01*
X128968334Y-99337857D01*
X128968334Y-99385476D01*
X128920715Y-99480714D01*
X128873096Y-99528333D01*
X128777858Y-99575952D01*
X128587381Y-99575952D01*
X128492143Y-99623571D01*
X128444524Y-99671190D01*
X128396905Y-99766429D01*
X128396905Y-99956905D01*
X128444524Y-100052143D01*
X128492143Y-100099762D01*
X128587381Y-100147381D01*
X128777858Y-100147381D01*
X128873096Y-100099762D01*
X128920715Y-100052143D01*
X128968334Y-99956905D01*
X128968334Y-99766429D01*
X128920715Y-99671190D01*
X128873096Y-99623571D01*
X128777858Y-99575952D01*
X130746667Y-100099762D02*
X130889524Y-100147381D01*
X131127620Y-100147381D01*
X131222858Y-100099762D01*
X131270477Y-100052143D01*
X131318096Y-99956905D01*
X131318096Y-99861667D01*
X131270477Y-99766429D01*
X131222858Y-99718810D01*
X131127620Y-99671190D01*
X130937143Y-99623571D01*
X130841905Y-99575952D01*
X130794286Y-99528333D01*
X130746667Y-99433095D01*
X130746667Y-99337857D01*
X130794286Y-99242619D01*
X130841905Y-99195000D01*
X130937143Y-99147381D01*
X131175239Y-99147381D01*
X131318096Y-99195000D01*
X131651429Y-99147381D02*
X131889524Y-100147381D01*
X132080001Y-99433095D01*
X132270477Y-100147381D01*
X132508572Y-99147381D01*
X132937143Y-100147381D02*
X133127619Y-100147381D01*
X133222858Y-100099762D01*
X133270477Y-100052143D01*
X133365715Y-99909286D01*
X133413334Y-99718810D01*
X133413334Y-99337857D01*
X133365715Y-99242619D01*
X133318096Y-99195000D01*
X133222858Y-99147381D01*
X133032381Y-99147381D01*
X132937143Y-99195000D01*
X132889524Y-99242619D01*
X132841905Y-99337857D01*
X132841905Y-99575952D01*
X132889524Y-99671190D01*
X132937143Y-99718810D01*
X133032381Y-99766429D01*
X133222858Y-99766429D01*
X133318096Y-99718810D01*
X133365715Y-99671190D01*
X133413334Y-99575952D01*
X134715476Y-100099762D02*
X134858333Y-100147381D01*
X135096429Y-100147381D01*
X135191667Y-100099762D01*
X135239286Y-100052143D01*
X135286905Y-99956905D01*
X135286905Y-99861667D01*
X135239286Y-99766429D01*
X135191667Y-99718810D01*
X135096429Y-99671190D01*
X134905952Y-99623571D01*
X134810714Y-99575952D01*
X134763095Y-99528333D01*
X134715476Y-99433095D01*
X134715476Y-99337857D01*
X134763095Y-99242619D01*
X134810714Y-99195000D01*
X134905952Y-99147381D01*
X135144048Y-99147381D01*
X135286905Y-99195000D01*
X135620238Y-99147381D02*
X135858333Y-100147381D01*
X136048810Y-99433095D01*
X136239286Y-100147381D01*
X136477381Y-99147381D01*
X137382143Y-100147381D02*
X136810714Y-100147381D01*
X137096428Y-100147381D02*
X137096428Y-99147381D01*
X137001190Y-99290238D01*
X136905952Y-99385476D01*
X136810714Y-99433095D01*
X138001190Y-99147381D02*
X138096429Y-99147381D01*
X138191667Y-99195000D01*
X138239286Y-99242619D01*
X138286905Y-99337857D01*
X138334524Y-99528333D01*
X138334524Y-99766429D01*
X138286905Y-99956905D01*
X138239286Y-100052143D01*
X138191667Y-100099762D01*
X138096429Y-100147381D01*
X138001190Y-100147381D01*
X137905952Y-100099762D01*
X137858333Y-100052143D01*
X137810714Y-99956905D01*
X137763095Y-99766429D01*
X137763095Y-99528333D01*
X137810714Y-99337857D01*
X137858333Y-99242619D01*
X137905952Y-99195000D01*
X138001190Y-99147381D01*
X116935476Y-105814762D02*
X117078333Y-105862381D01*
X117316429Y-105862381D01*
X117411667Y-105814762D01*
X117459286Y-105767143D01*
X117506905Y-105671905D01*
X117506905Y-105576667D01*
X117459286Y-105481429D01*
X117411667Y-105433810D01*
X117316429Y-105386190D01*
X117125952Y-105338571D01*
X117030714Y-105290952D01*
X116983095Y-105243333D01*
X116935476Y-105148095D01*
X116935476Y-105052857D01*
X116983095Y-104957619D01*
X117030714Y-104910000D01*
X117125952Y-104862381D01*
X117364048Y-104862381D01*
X117506905Y-104910000D01*
X117840238Y-104862381D02*
X118078333Y-105862381D01*
X118268810Y-105148095D01*
X118459286Y-105862381D01*
X118697381Y-104862381D01*
X119602143Y-105862381D02*
X119030714Y-105862381D01*
X119316428Y-105862381D02*
X119316428Y-104862381D01*
X119221190Y-105005238D01*
X119125952Y-105100476D01*
X119030714Y-105148095D01*
X120554524Y-105862381D02*
X119983095Y-105862381D01*
X120268809Y-105862381D02*
X120268809Y-104862381D01*
X120173571Y-105005238D01*
X120078333Y-105100476D01*
X119983095Y-105148095D01*
X121380476Y-105814762D02*
X121523333Y-105862381D01*
X121761429Y-105862381D01*
X121856667Y-105814762D01*
X121904286Y-105767143D01*
X121951905Y-105671905D01*
X121951905Y-105576667D01*
X121904286Y-105481429D01*
X121856667Y-105433810D01*
X121761429Y-105386190D01*
X121570952Y-105338571D01*
X121475714Y-105290952D01*
X121428095Y-105243333D01*
X121380476Y-105148095D01*
X121380476Y-105052857D01*
X121428095Y-104957619D01*
X121475714Y-104910000D01*
X121570952Y-104862381D01*
X121809048Y-104862381D01*
X121951905Y-104910000D01*
X122285238Y-104862381D02*
X122523333Y-105862381D01*
X122713810Y-105148095D01*
X122904286Y-105862381D01*
X123142381Y-104862381D01*
X124047143Y-105862381D02*
X123475714Y-105862381D01*
X123761428Y-105862381D02*
X123761428Y-104862381D01*
X123666190Y-105005238D01*
X123570952Y-105100476D01*
X123475714Y-105148095D01*
X124428095Y-104957619D02*
X124475714Y-104910000D01*
X124570952Y-104862381D01*
X124809048Y-104862381D01*
X124904286Y-104910000D01*
X124951905Y-104957619D01*
X124999524Y-105052857D01*
X124999524Y-105148095D01*
X124951905Y-105290952D01*
X124380476Y-105862381D01*
X124999524Y-105862381D01*
X125825476Y-105814762D02*
X125968333Y-105862381D01*
X126206429Y-105862381D01*
X126301667Y-105814762D01*
X126349286Y-105767143D01*
X126396905Y-105671905D01*
X126396905Y-105576667D01*
X126349286Y-105481429D01*
X126301667Y-105433810D01*
X126206429Y-105386190D01*
X126015952Y-105338571D01*
X125920714Y-105290952D01*
X125873095Y-105243333D01*
X125825476Y-105148095D01*
X125825476Y-105052857D01*
X125873095Y-104957619D01*
X125920714Y-104910000D01*
X126015952Y-104862381D01*
X126254048Y-104862381D01*
X126396905Y-104910000D01*
X126730238Y-104862381D02*
X126968333Y-105862381D01*
X127158810Y-105148095D01*
X127349286Y-105862381D01*
X127587381Y-104862381D01*
X128492143Y-105862381D02*
X127920714Y-105862381D01*
X128206428Y-105862381D02*
X128206428Y-104862381D01*
X128111190Y-105005238D01*
X128015952Y-105100476D01*
X127920714Y-105148095D01*
X128825476Y-104862381D02*
X129444524Y-104862381D01*
X129111190Y-105243333D01*
X129254048Y-105243333D01*
X129349286Y-105290952D01*
X129396905Y-105338571D01*
X129444524Y-105433810D01*
X129444524Y-105671905D01*
X129396905Y-105767143D01*
X129349286Y-105814762D01*
X129254048Y-105862381D01*
X128968333Y-105862381D01*
X128873095Y-105814762D01*
X128825476Y-105767143D01*
X130270476Y-105814762D02*
X130413333Y-105862381D01*
X130651429Y-105862381D01*
X130746667Y-105814762D01*
X130794286Y-105767143D01*
X130841905Y-105671905D01*
X130841905Y-105576667D01*
X130794286Y-105481429D01*
X130746667Y-105433810D01*
X130651429Y-105386190D01*
X130460952Y-105338571D01*
X130365714Y-105290952D01*
X130318095Y-105243333D01*
X130270476Y-105148095D01*
X130270476Y-105052857D01*
X130318095Y-104957619D01*
X130365714Y-104910000D01*
X130460952Y-104862381D01*
X130699048Y-104862381D01*
X130841905Y-104910000D01*
X131175238Y-104862381D02*
X131413333Y-105862381D01*
X131603810Y-105148095D01*
X131794286Y-105862381D01*
X132032381Y-104862381D01*
X132937143Y-105862381D02*
X132365714Y-105862381D01*
X132651428Y-105862381D02*
X132651428Y-104862381D01*
X132556190Y-105005238D01*
X132460952Y-105100476D01*
X132365714Y-105148095D01*
X133794286Y-105195714D02*
X133794286Y-105862381D01*
X133556190Y-104814762D02*
X133318095Y-105529048D01*
X133937143Y-105529048D01*
X134715476Y-105814762D02*
X134858333Y-105862381D01*
X135096429Y-105862381D01*
X135191667Y-105814762D01*
X135239286Y-105767143D01*
X135286905Y-105671905D01*
X135286905Y-105576667D01*
X135239286Y-105481429D01*
X135191667Y-105433810D01*
X135096429Y-105386190D01*
X134905952Y-105338571D01*
X134810714Y-105290952D01*
X134763095Y-105243333D01*
X134715476Y-105148095D01*
X134715476Y-105052857D01*
X134763095Y-104957619D01*
X134810714Y-104910000D01*
X134905952Y-104862381D01*
X135144048Y-104862381D01*
X135286905Y-104910000D01*
X135620238Y-104862381D02*
X135858333Y-105862381D01*
X136048810Y-105148095D01*
X136239286Y-105862381D01*
X136477381Y-104862381D01*
X137382143Y-105862381D02*
X136810714Y-105862381D01*
X137096428Y-105862381D02*
X137096428Y-104862381D01*
X137001190Y-105005238D01*
X136905952Y-105100476D01*
X136810714Y-105148095D01*
X138286905Y-104862381D02*
X137810714Y-104862381D01*
X137763095Y-105338571D01*
X137810714Y-105290952D01*
X137905952Y-105243333D01*
X138144048Y-105243333D01*
X138239286Y-105290952D01*
X138286905Y-105338571D01*
X138334524Y-105433810D01*
X138334524Y-105671905D01*
X138286905Y-105767143D01*
X138239286Y-105814762D01*
X138144048Y-105862381D01*
X137905952Y-105862381D01*
X137810714Y-105814762D01*
X137763095Y-105767143D01*
X116935476Y-111529762D02*
X117078333Y-111577381D01*
X117316429Y-111577381D01*
X117411667Y-111529762D01*
X117459286Y-111482143D01*
X117506905Y-111386905D01*
X117506905Y-111291667D01*
X117459286Y-111196429D01*
X117411667Y-111148810D01*
X117316429Y-111101190D01*
X117125952Y-111053571D01*
X117030714Y-111005952D01*
X116983095Y-110958333D01*
X116935476Y-110863095D01*
X116935476Y-110767857D01*
X116983095Y-110672619D01*
X117030714Y-110625000D01*
X117125952Y-110577381D01*
X117364048Y-110577381D01*
X117506905Y-110625000D01*
X117840238Y-110577381D02*
X118078333Y-111577381D01*
X118268810Y-110863095D01*
X118459286Y-111577381D01*
X118697381Y-110577381D01*
X119602143Y-111577381D02*
X119030714Y-111577381D01*
X119316428Y-111577381D02*
X119316428Y-110577381D01*
X119221190Y-110720238D01*
X119125952Y-110815476D01*
X119030714Y-110863095D01*
X120459286Y-110577381D02*
X120268809Y-110577381D01*
X120173571Y-110625000D01*
X120125952Y-110672619D01*
X120030714Y-110815476D01*
X119983095Y-111005952D01*
X119983095Y-111386905D01*
X120030714Y-111482143D01*
X120078333Y-111529762D01*
X120173571Y-111577381D01*
X120364048Y-111577381D01*
X120459286Y-111529762D01*
X120506905Y-111482143D01*
X120554524Y-111386905D01*
X120554524Y-111148810D01*
X120506905Y-111053571D01*
X120459286Y-111005952D01*
X120364048Y-110958333D01*
X120173571Y-110958333D01*
X120078333Y-111005952D01*
X120030714Y-111053571D01*
X119983095Y-111148810D01*
X121380476Y-111529762D02*
X121523333Y-111577381D01*
X121761429Y-111577381D01*
X121856667Y-111529762D01*
X121904286Y-111482143D01*
X121951905Y-111386905D01*
X121951905Y-111291667D01*
X121904286Y-111196429D01*
X121856667Y-111148810D01*
X121761429Y-111101190D01*
X121570952Y-111053571D01*
X121475714Y-111005952D01*
X121428095Y-110958333D01*
X121380476Y-110863095D01*
X121380476Y-110767857D01*
X121428095Y-110672619D01*
X121475714Y-110625000D01*
X121570952Y-110577381D01*
X121809048Y-110577381D01*
X121951905Y-110625000D01*
X122285238Y-110577381D02*
X122523333Y-111577381D01*
X122713810Y-110863095D01*
X122904286Y-111577381D01*
X123142381Y-110577381D01*
X124047143Y-111577381D02*
X123475714Y-111577381D01*
X123761428Y-111577381D02*
X123761428Y-110577381D01*
X123666190Y-110720238D01*
X123570952Y-110815476D01*
X123475714Y-110863095D01*
X124380476Y-110577381D02*
X125047143Y-110577381D01*
X124618571Y-111577381D01*
X125825476Y-111529762D02*
X125968333Y-111577381D01*
X126206429Y-111577381D01*
X126301667Y-111529762D01*
X126349286Y-111482143D01*
X126396905Y-111386905D01*
X126396905Y-111291667D01*
X126349286Y-111196429D01*
X126301667Y-111148810D01*
X126206429Y-111101190D01*
X126015952Y-111053571D01*
X125920714Y-111005952D01*
X125873095Y-110958333D01*
X125825476Y-110863095D01*
X125825476Y-110767857D01*
X125873095Y-110672619D01*
X125920714Y-110625000D01*
X126015952Y-110577381D01*
X126254048Y-110577381D01*
X126396905Y-110625000D01*
X126730238Y-110577381D02*
X126968333Y-111577381D01*
X127158810Y-110863095D01*
X127349286Y-111577381D01*
X127587381Y-110577381D01*
X128492143Y-111577381D02*
X127920714Y-111577381D01*
X128206428Y-111577381D02*
X128206428Y-110577381D01*
X128111190Y-110720238D01*
X128015952Y-110815476D01*
X127920714Y-110863095D01*
X129063571Y-111005952D02*
X128968333Y-110958333D01*
X128920714Y-110910714D01*
X128873095Y-110815476D01*
X128873095Y-110767857D01*
X128920714Y-110672619D01*
X128968333Y-110625000D01*
X129063571Y-110577381D01*
X129254048Y-110577381D01*
X129349286Y-110625000D01*
X129396905Y-110672619D01*
X129444524Y-110767857D01*
X129444524Y-110815476D01*
X129396905Y-110910714D01*
X129349286Y-110958333D01*
X129254048Y-111005952D01*
X129063571Y-111005952D01*
X128968333Y-111053571D01*
X128920714Y-111101190D01*
X128873095Y-111196429D01*
X128873095Y-111386905D01*
X128920714Y-111482143D01*
X128968333Y-111529762D01*
X129063571Y-111577381D01*
X129254048Y-111577381D01*
X129349286Y-111529762D01*
X129396905Y-111482143D01*
X129444524Y-111386905D01*
X129444524Y-111196429D01*
X129396905Y-111101190D01*
X129349286Y-111053571D01*
X129254048Y-111005952D01*
X130270476Y-111529762D02*
X130413333Y-111577381D01*
X130651429Y-111577381D01*
X130746667Y-111529762D01*
X130794286Y-111482143D01*
X130841905Y-111386905D01*
X130841905Y-111291667D01*
X130794286Y-111196429D01*
X130746667Y-111148810D01*
X130651429Y-111101190D01*
X130460952Y-111053571D01*
X130365714Y-111005952D01*
X130318095Y-110958333D01*
X130270476Y-110863095D01*
X130270476Y-110767857D01*
X130318095Y-110672619D01*
X130365714Y-110625000D01*
X130460952Y-110577381D01*
X130699048Y-110577381D01*
X130841905Y-110625000D01*
X131175238Y-110577381D02*
X131413333Y-111577381D01*
X131603810Y-110863095D01*
X131794286Y-111577381D01*
X132032381Y-110577381D01*
X132937143Y-111577381D02*
X132365714Y-111577381D01*
X132651428Y-111577381D02*
X132651428Y-110577381D01*
X132556190Y-110720238D01*
X132460952Y-110815476D01*
X132365714Y-110863095D01*
X133413333Y-111577381D02*
X133603809Y-111577381D01*
X133699048Y-111529762D01*
X133746667Y-111482143D01*
X133841905Y-111339286D01*
X133889524Y-111148810D01*
X133889524Y-110767857D01*
X133841905Y-110672619D01*
X133794286Y-110625000D01*
X133699048Y-110577381D01*
X133508571Y-110577381D01*
X133413333Y-110625000D01*
X133365714Y-110672619D01*
X133318095Y-110767857D01*
X133318095Y-111005952D01*
X133365714Y-111101190D01*
X133413333Y-111148810D01*
X133508571Y-111196429D01*
X133699048Y-111196429D01*
X133794286Y-111148810D01*
X133841905Y-111101190D01*
X133889524Y-111005952D01*
X134715476Y-111529762D02*
X134858333Y-111577381D01*
X135096429Y-111577381D01*
X135191667Y-111529762D01*
X135239286Y-111482143D01*
X135286905Y-111386905D01*
X135286905Y-111291667D01*
X135239286Y-111196429D01*
X135191667Y-111148810D01*
X135096429Y-111101190D01*
X134905952Y-111053571D01*
X134810714Y-111005952D01*
X134763095Y-110958333D01*
X134715476Y-110863095D01*
X134715476Y-110767857D01*
X134763095Y-110672619D01*
X134810714Y-110625000D01*
X134905952Y-110577381D01*
X135144048Y-110577381D01*
X135286905Y-110625000D01*
X135620238Y-110577381D02*
X135858333Y-111577381D01*
X136048810Y-110863095D01*
X136239286Y-111577381D01*
X136477381Y-110577381D01*
X136810714Y-110672619D02*
X136858333Y-110625000D01*
X136953571Y-110577381D01*
X137191667Y-110577381D01*
X137286905Y-110625000D01*
X137334524Y-110672619D01*
X137382143Y-110767857D01*
X137382143Y-110863095D01*
X137334524Y-111005952D01*
X136763095Y-111577381D01*
X137382143Y-111577381D01*
X138001190Y-110577381D02*
X138096429Y-110577381D01*
X138191667Y-110625000D01*
X138239286Y-110672619D01*
X138286905Y-110767857D01*
X138334524Y-110958333D01*
X138334524Y-111196429D01*
X138286905Y-111386905D01*
X138239286Y-111482143D01*
X138191667Y-111529762D01*
X138096429Y-111577381D01*
X138001190Y-111577381D01*
X137905952Y-111529762D01*
X137858333Y-111482143D01*
X137810714Y-111386905D01*
X137763095Y-111196429D01*
X137763095Y-110958333D01*
X137810714Y-110767857D01*
X137858333Y-110672619D01*
X137905952Y-110625000D01*
X138001190Y-110577381D01*
X111910881Y-91709833D02*
X112625167Y-91709833D01*
X112768024Y-91757453D01*
X112863262Y-91852691D01*
X112910881Y-91995548D01*
X112910881Y-92090786D01*
X112910881Y-90709833D02*
X112910881Y-91281262D01*
X112910881Y-90995548D02*
X111910881Y-90995548D01*
X112053738Y-91090786D01*
X112148976Y-91186024D01*
X112196595Y-91281262D01*
M02*
