G04 #@! TF.FileFunction,Soldermask,Top*
%FSLAX46Y46*%
G04 Gerber Fmt 4.6, Leading zero omitted, Abs format (unit mm)*
G04 Created by KiCad (PCBNEW 4.0.7) date 07/07/18 12:03:53*
%MOMM*%
%LPD*%
G01*
G04 APERTURE LIST*
%ADD10C,0.100000*%
%ADD11R,2.100000X1.300000*%
%ADD12R,2.100000X2.100000*%
%ADD13O,2.100000X2.100000*%
G04 APERTURE END LIST*
D10*
D11*
X118745000Y-98220000D03*
X118745000Y-94820000D03*
X123190000Y-98220000D03*
X123190000Y-94820000D03*
X127635000Y-98220000D03*
X127635000Y-94820000D03*
X132080000Y-98220000D03*
X132080000Y-94820000D03*
X136525000Y-98220000D03*
X136525000Y-94820000D03*
X118745000Y-100535000D03*
X118745000Y-103935000D03*
X123190000Y-100535000D03*
X123190000Y-103935000D03*
X127635000Y-100535000D03*
X127635000Y-103935000D03*
X132080000Y-100535000D03*
X132080000Y-103935000D03*
X136525000Y-100535000D03*
X136525000Y-103935000D03*
X118745000Y-106250000D03*
X118745000Y-109650000D03*
X123190000Y-106250000D03*
X123190000Y-109650000D03*
X127635000Y-106250000D03*
X127635000Y-109650000D03*
X132080000Y-106250000D03*
X132080000Y-109650000D03*
X136525000Y-106250000D03*
X136525000Y-109650000D03*
X118745000Y-111965000D03*
X118745000Y-115365000D03*
X123190000Y-111965000D03*
X123190000Y-115365000D03*
X127635000Y-111965000D03*
X127635000Y-115365000D03*
X132080000Y-111965000D03*
X132080000Y-115365000D03*
X136525000Y-111965000D03*
X136525000Y-115365000D03*
D12*
X123825000Y-90805000D03*
D13*
X126365000Y-90805000D03*
X128905000Y-90805000D03*
X131445000Y-90805000D03*
M02*
