M48
;DRILL file {KiCad 4.0.7} date 07/07/18 12:03:59
;FORMAT={-:-/ absolute / metric / decimal}
FMAT,2
METRIC,TZ
T1C0.400
T2C1.000
%
G90
G05
M71
T1
X118.427Y-98.234
X118.745Y-95.186
X121.031Y-98.615
X121.031Y-105.474
X123.253Y-113.665
X123.444Y-96.456
X124.206Y-110.871
X125.222Y-106.108
X125.285Y-109.664
X126.746Y-107.95
X127.508Y-101.981
X127.889Y-96.584
X131.508Y-102.108
X131.636Y-113.602
X131.953Y-111.569
X132.08Y-107.95
X134.112Y-93.218
X135.953Y-107.886
X136.207Y-111.95
X136.462Y-96.71
T2
X123.825Y-90.805
X126.365Y-90.805
X128.905Y-90.805
X131.445Y-90.805
T0
M30
